<?xml version="1.0" encoding="utf-8"?>
<!-- Generator: Adobe Illustrator 24.0.1, SVG Export Plug-In . SVG Version: 6.00 Build 0)  -->
<svg version="1.1" id="Layer_1" xmlns="http://www.w3.org/2000/svg" xmlns:xlink="http://www.w3.org/1999/xlink" x="0px" y="0px"
	 viewBox="0 0 700 700" style="enable-background:new 0 0 700 700;" xml:space="preserve">
<style type="text/css">
	.st0{fill-rule:evenodd;clip-rule:evenodd;fill:#005665;}
</style>
<g>
	<path class="st0" d="M375,261.8c0,6-9.1,6-9.1,0S375,255.7,375,261.8"/>
	<path class="st0" d="M375,243.6c0,6-9.1,6-9.1,0C366,237.5,375,237.5,375,243.6"/>
	<path class="st0" d="M311.3,270.9c10.1,0,18.2-8.2,18.2-18.2c0-10.1-8.2-18.2-18.2-18.2c-10.1,0-18.2,8.2-18.2,18.2
		S301.3,270.9,311.3,270.9z M302.2,248.1h4.6v-4.6c0-2.5,2.1-4.6,4.6-4.6c2.5,0,4.6,2.1,4.6,4.6v4.6h4.5c2.5,0,4.6,2.1,4.6,4.6
		c0,2.5-2.1,4.6-4.6,4.6l-4.6,0v4.6c0,2.5-2.1,4.6-4.6,4.6c-2.5,0-4.6-2.1-4.6-4.6v-4.6h-4.5c-2.5,0-4.6-2.1-4.6-4.6
		C297.6,250.2,299.7,248.1,302.2,248.1L302.2,248.1z"/>
	<path class="st0" d="M393.2,261.8c0,6-9.1,6-9.1,0S393.2,255.7,393.2,261.8"/>
	<path class="st0" d="M288.5,334.6c7.6,0,13.6-6.1,13.6-13.6v-22.8c0-2.5,2.1-4.6,4.6-4.6l72.8,0c2.5,0,4.6,2.1,4.6,4.6V321
		c0,7.6,6.1,13.6,13.6,13.6c7.5,0,13.6-6.1,13.6-13.6v-91.2c0-9.9-8.1-18.1-18.1-18.1l-100.4,0c-9.9,0-18.1,8.1-18.1,18.1V321
		C274.9,328.5,281,334.6,288.5,334.6L288.5,334.6z M356.8,243.6c0-7.6,6.1-13.6,13.6-13.6c3.5,0,6.7,1.3,9.1,3.5
		c2.4-2.1,5.6-3.5,9.1-3.5c7.6,0,13.6,6.1,13.6,13.6c0,3.5-1.3,6.7-3.5,9.1c2.1,2.4,3.5,5.6,3.5,9.1c0,7.6-6.1,13.6-13.6,13.6
		c-3.5,0-6.7-1.3-9.1-3.5c-2.4,2.1-5.6,3.5-9.1,3.5c-7.6,0-13.6-6.1-13.6-13.6c0-3.5,1.3-6.7,3.5-9.1
		C358.2,250.2,356.8,247.1,356.8,243.6z M311.3,225.3c15.1,0,27.3,12.3,27.3,27.3c0,15-12.3,27.3-27.3,27.3S284,267.7,284,252.7
		C284,237.6,296.3,225.4,311.3,225.3L311.3,225.3z"/>
	<path class="st0" d="M393.2,243.6c0,6-9.1,6-9.1,0C384.1,237.5,393.2,237.5,393.2,243.6"/>
	<path class="st0" d="M433.7,75.2H252.6c-20.3,0-36.9,16.5-36.9,36.9v335.9c0,20.3,16.5,36.9,36.9,36.9h181.1
		c20.3,0,36.9-16.5,36.9-36.9V112.1C470.6,91.7,454,75.2,433.7,75.2L433.7,75.2z M320.4,93.4h45.5c2.5,0,4.6,2.1,4.6,4.6
		c0,2.5-2.1,4.6-4.6,4.6h-45.5c-2.5,0-4.6-2.1-4.6-4.6C315.8,95.4,317.9,93.4,320.4,93.4z M365.9,466.6h-45.5
		c-2.5,0-4.6-2.1-4.6-4.6c0-2.5,2.1-4.6,4.6-4.6l45.5,0c2.5,0,4.6,2.1,4.6,4.6C370.5,464.6,368.4,466.6,365.9,466.6L365.9,466.6z
		 M447.8,434.7c0,2.5-2.1,4.6-4.6,4.6H243c-2.5,0-4.6-2.1-4.6-4.6V125.2c0-2.5,2.1-4.6,4.6-4.6l200.3,0c2.5,0,4.6,2.1,4.6,4.6
		L447.8,434.7z"/>
</g>
</svg>
