<?xml version="1.0" encoding="utf-8"?>
<!-- Generator: Adobe Illustrator 24.0.1, SVG Export Plug-In . SVG Version: 6.00 Build 0)  -->
<svg version="1.1" id="Layer_1" xmlns="http://www.w3.org/2000/svg" xmlns:xlink="http://www.w3.org/1999/xlink" x="0px" y="0px"
	 viewBox="0 0 700 700" style="enable-background:new 0 0 700 700;" xml:space="preserve">
<style type="text/css">
	.st0{fill:#005665;stroke:#005665;stroke-width:6;stroke-miterlimit:10;}
	.st1{fill:#FFFFFF;}
	.st2{fill:none;stroke:#005665;stroke-width:4.5;stroke-miterlimit:10;}
</style>
<path class="st0" d="M468.1,580.2H231.9c-20.6,0-37.4-16.8-37.4-37.4V119.9c0-20.6,16.8-37.4,37.4-37.4h236.1
	c20.6,0,37.4,16.8,37.4,37.4v422.9C505.5,563.4,488.7,580.2,468.1,580.2z M231.9,95.9c-13.2,0-23.9,10.7-23.9,23.9v422.9
	c0,13.2,10.7,23.9,23.9,23.9h236.1c13.2,0,23.9-10.7,23.9-23.9V119.9c0-13.2-10.7-23.9-23.9-23.9L231.9,95.9z"/>
<path class="st0" d="M498.7,485.6H201.2c-3.7,0-6.8-3-6.8-6.8s3-6.8,6.8-6.8h297.5c3.7,0,6.8,3,6.8,6.8
	C505.5,482.6,502.5,485.6,498.7,485.6z"/>
<path class="st0" d="M494,143.8H201.2c-3.7,0-6.8-3-6.8-6.8s3-6.8,6.8-6.8H494c3.7,0,6.8,3,6.8,6.8
	C500.7,140.8,497.7,143.8,494,143.8z"/>
<circle class="st0" cx="350" cy="524.8" r="24.2"/>
<circle class="st1" cx="350" cy="524.8" r="14.7"/>
<g>
	<path class="st2" d="M319.1,365.3c-2,0-3.7,0-5.4,0c-10.2,0.3-15.5-4.9-15.5-15.1c0-18,0-36,0-54c0-6.8,0-13.7,0-20.5
		c0-2.5,0.3-2.8,2.8-2.8c32.7,0,65.4,0,98,0c2.4,0,2.7,0.3,2.7,2.7c0,25.2,0,50.5-0.1,75.7c0,8.8-5.4,14-14.2,14.1
		c-2.1,0-4.2,0-6.5,0c-0.1,1.2-0.2,2.2-0.2,3.2c0,7.8,0,15.5,0,23.3c0,3.8-0.9,7.2-3.9,9.7c-3.6,3.1-7.7,3.9-12.1,2
		c-4.7-2.1-6.8-6-6.9-11c-0.1-8.3-0.1-16.7-0.1-25c0-0.6,0-1.3,0-2c-5.3,0-10.4,0-15.7,0c0,1,0,1.9,0,2.8c0,7.6,0,15.3,0,22.9
		c0,3.3-0.5,6.4-2.7,9.1c-3.1,3.7-7.9,5.2-12.2,3.8c-4.5-1.5-7.9-6-8-10.9c-0.1-8.5-0.1-17-0.1-25.4
		C319.1,367,319.1,366.3,319.1,365.3z"/>
	<path class="st2" d="M324.7,218c-2.6-4.9-5-9.6-7.5-14.2c-0.6-1.1-1.8-2.5-0.1-3.4c1.8-1,2.1,0.9,2.7,2c2.2,4,4.3,8,6.4,12
		c0.4,0.7,0.8,1.5,1.3,2.3c15-6.6,29.9-6.5,44.9,0.1c2.4-4.5,4.7-8.9,7.1-13.3c0.4-0.8,0.8-1.7,1.4-2.4c0.3-0.4,1.1-0.9,1.4-0.7
		c0.5,0.3,0.9,1,0.9,1.5c0,0.8-0.3,1.7-0.7,2.4c-2,4-4.2,8-6.2,12.1c-0.3,0.6-0.6,1.2-0.8,1.8c16.5,10,25.5,24.2,26.5,43.7
		c-34.8,0-69.2,0-103.7,0c0.4-9.1,2.6-17.6,7.3-25.3C310.1,228.6,316.8,222.7,324.7,218z M373.9,232.8c-2.5,0-4.4,2-4.4,4.6
		c0,2.5,1.9,4.6,4.2,4.6c2.7,0,4.6-1.9,4.6-4.6C378.3,234.8,376.3,232.8,373.9,232.8z M326,241.9c2.5,0,4.3-2,4.4-4.6
		c0.1-2.6-1.9-4.6-4.4-4.6c-2.4,0-4.4,2.1-4.4,4.6C321.6,239.9,323.5,241.9,326,241.9z"/>
	<path class="st2" d="M266,307.5c0-8.3,0-16.7,0-25c0-3.3,0.9-6.2,3-8.7c3-3.5,7.8-4.7,12.2-3.2c4.6,1.6,7.6,5.5,7.7,10.6
		c0.1,17.2,0.2,34.4,0.1,51.6c0,7-4.2,11.7-10.3,12.4c-6.5,0.7-12.5-4.5-12.6-11.2C266,325.1,266.1,316.3,266,307.5
		C266.1,307.5,266.1,307.5,266,307.5z"/>
	<path class="st2" d="M433.8,307.5c0,8.8,0.1,17.6,0,26.4c-0.1,6-4.8,10.9-10.6,11.2c-6.5,0.4-12.2-4.8-12.2-11.6
		c-0.1-11.6-0.1-23.1-0.1-34.7c0-5.8-0.1-11.6,0.1-17.3c0.2-5,2.6-8.7,7.2-10.9c5.6-2.6,12.9,0.7,14.8,6.8c0.6,2.1,0.8,4.4,0.9,6.6
		C434,291.9,433.9,299.7,433.8,307.5C433.9,307.5,433.8,307.5,433.8,307.5z"/>
</g>
</svg>
