<?xml version="1.0" encoding="utf-8"?>
<!-- Generator: Adobe Illustrator 24.0.1, SVG Export Plug-In . SVG Version: 6.00 Build 0)  -->
<svg version="1.1" id="Layer_1" xmlns="http://www.w3.org/2000/svg" xmlns:xlink="http://www.w3.org/1999/xlink" x="0px" y="0px"
	 viewBox="0 0 700 700" style="enable-background:new 0 0 700 700;" xml:space="preserve">
<style type="text/css">
	.st0{fill-rule:evenodd;clip-rule:evenodd;fill:#005665;}
	.st1{fill-rule:evenodd;clip-rule:evenodd;fill:#FFFFFF;}
	.st2{fill:none;stroke:#005665;stroke-width:4.5;stroke-miterlimit:10;}
</style>
<path class="st0" d="M124.8,473.9l-51.9,77.8c-5.4,8.1-3.2,18.9,4.8,24.3c8,5.4,18.9,3.2,24.3-4.8l64.8-97.2h366.3l64.8,97.2
	c5.4,8,16.2,10.2,24.3,4.8c8-5.4,10.2-16.2,4.8-24.3l-51.9-77.8h29.6c13.9,0,25.2-11.3,25.2-25.2V131.5c0-13.9-11.3-25.2-25.2-25.2
	H95.2c-13.9,0-25.2,11.3-25.2,25.2v317.1c0,13.9,11.3,25.2,25.2,25.2H124.8z"/>
<rect x="90" y="132.3" class="st1" width="520" height="315.7"/>
<path class="st2" d="M315.8,357.9c-2.2,0-4.1,0-6,0c-11.3,0.3-17.2-5.4-17.2-16.8c0-20,0-39.9,0-59.9c0-7.6,0-15.1,0-22.7
	c0-2.8,0.3-3.1,3.2-3.1c36.2,0,72.4,0,108.6,0c2.7,0,3,0.3,3,3c0,28,0,55.9-0.1,83.9c0,9.8-6,15.5-15.7,15.6c-2.3,0-4.6,0-7.2,0
	c-0.1,1.3-0.2,2.4-0.2,3.6c0,8.6,0,17.2,0,25.8c0,4.2-1,8-4.3,10.8c-4,3.4-8.5,4.4-13.4,2.2c-5.3-2.3-7.5-6.7-7.6-12.2
	c-0.1-9.2-0.1-18.5-0.1-27.7c0-0.7,0-1.4,0-2.2c-5.8,0-11.5,0-17.4,0c0,1.1,0,2.1,0,3.1c0,8.4,0,16.9,0,25.3c0,3.6-0.5,7.1-2.9,10.1
	c-3.4,4.1-8.7,5.8-13.5,4.2c-5-1.6-8.8-6.6-8.9-12.1c-0.1-9.4-0.1-18.8-0.1-28.2C315.8,359.8,315.8,359,315.8,357.9z"/>
<path class="st2" d="M322,194.7c-2.9-5.5-5.6-10.6-8.3-15.8c-0.6-1.2-2-2.7-0.1-3.8c2-1.1,2.4,1,3,2.2c2.4,4.4,4.7,8.9,7.1,13.3
	c0.4,0.8,0.9,1.6,1.5,2.6c16.6-7.3,33.2-7.2,49.8,0.1c2.7-5,5.3-9.9,7.9-14.8c0.5-0.9,0.9-1.9,1.5-2.7c0.3-0.4,1.3-1,1.5-0.8
	c0.5,0.3,1,1.1,1,1.7c0,0.9-0.4,1.8-0.8,2.7c-2.3,4.5-4.6,8.9-6.9,13.4c-0.3,0.6-0.6,1.3-0.9,2c18.2,11,28.3,26.9,29.4,48.4
	c-38.5,0-76.7,0-114.9,0c0.4-10.1,2.9-19.5,8.1-28C305.9,206.4,313.2,199.9,322,194.7z M376.5,211.1c-2.7,0-4.9,2.3-4.9,5.1
	c0,2.8,2.1,5,4.6,5.1c3,0,5.1-2.1,5.1-5.1C381.4,213.3,379.2,211.1,376.5,211.1z M323.4,221.2c2.7,0,4.8-2.2,4.9-5.1
	c0.1-2.8-2.1-5.1-4.8-5.1c-2.7,0-4.9,2.3-4.9,5.1C318.6,219,320.7,221.2,323.4,221.2z"/>
<path class="st2" d="M257,293.9c0-9.2,0-18.5,0-27.7c0-3.6,1-6.9,3.3-9.7c3.3-3.9,8.6-5.3,13.5-3.6c5.1,1.7,8.5,6.1,8.5,11.7
	c0.1,19.1,0.2,38.1,0.1,57.2c0,7.7-4.7,13-11.4,13.7c-7.2,0.8-13.8-5-13.9-12.4C256.9,313.4,257,303.6,257,293.9
	C257,293.9,257,293.9,257,293.9z"/>
<path class="st2" d="M442.9,293.9c0,9.7,0.1,19.5,0,29.2c-0.1,6.6-5.3,12-11.7,12.5c-7.2,0.5-13.5-5.3-13.6-12.9
	c-0.2-12.8-0.1-25.6-0.1-38.4c0-6.4-0.1-12.8,0.1-19.2c0.2-5.5,2.9-9.7,8-12c6.2-2.9,14.3,0.8,16.4,7.6c0.7,2.3,0.9,4.8,1,7.3
	C443,276.6,443,285.2,442.9,293.9C443,293.9,442.9,293.9,442.9,293.9z"/>
</svg>
