<?xml version="1.0" encoding="utf-8"?>
<!-- Generator: Adobe Illustrator 24.0.1, SVG Export Plug-In . SVG Version: 6.00 Build 0)  -->
<svg version="1.1" id="Layer_1" xmlns="http://www.w3.org/2000/svg" xmlns:xlink="http://www.w3.org/1999/xlink" x="0px" y="0px"
	 viewBox="0 0 700 700" style="enable-background:new 0 0 700 700;" xml:space="preserve">
<style type="text/css">
	.st0{fill:#FFFFFF;}
</style>
<g>
	<path class="st0" d="M251.1,405.4c61.9-43.7,31.2-142.6-45.5-142.9C129,262.7,98.3,361.6,160,405.3c-15.3,8.2-28.2,20.4-37.1,35.3
		c-8.9,14.9-13.6,32-13.5,49.4v26.3c0,3.5,2.1,6.7,5.4,8.1c28.8,12,59.7,18.2,90.9,18.2c31.2,0,62.1-6.2,90.9-18.2
		c3.3-1.4,5.4-4.5,5.4-8.1V490c0-17.4-4.7-34.4-13.6-49.3C279.3,425.7,266.5,413.6,251.1,405.4L251.1,405.4z M144.4,341.2
		c0-16.2,6.5-31.8,18-43.3c11.5-11.5,27.1-17.9,43.3-18c81.1,3.1,81.1,119.4,0,122.5c-16.2,0-31.8-6.5-43.3-18
		C150.8,373.1,144.4,357.5,144.4,341.2z M284.4,510.3c-50.7,19.5-106.8,19.5-157.5,0V490c0.1-16.4,5.2-32.3,14.8-45.6
		c9.5-13.3,22.9-23.4,38.3-28.8c16.6,5.8,34.6,5.8,51.2,0c15.5,5.3,29,15.3,38.5,28.7c9.5,13.3,14.7,29.3,14.7,45.7L284.4,510.3z"/>
	<path class="st0" d="M539.9,160.4c61.9-43.7,31.2-142.6-45.5-142.9c-76.6,0.2-107.4,99.1-45.6,142.8c-15.3,8.2-28.2,20.4-37.1,35.3
		c-8.9,14.9-13.6,32-13.5,49.4v26.3c0,3.5,2.1,6.7,5.4,8.1c28.8,12,59.7,18.2,90.9,18.2c31.2,0,62.1-6.2,90.9-18.2
		c3.3-1.4,5.4-4.5,5.4-8.1V245c0-17.4-4.7-34.4-13.6-49.3C568.1,180.7,555.2,168.6,539.9,160.4L539.9,160.4z M433.1,96.2
		c0-16.2,6.5-31.8,18-43.3c11.5-11.5,27.1-17.9,43.3-18c81.1,3.1,81.1,119.4,0,122.5c-16.2,0-31.8-6.5-43.3-18
		C439.6,128.1,433.1,112.5,433.1,96.2z M503.1,174.5v9.3c0,4.8-3.9,8.8-8.8,8.8s-8.8-3.9-8.8-8.8v-9.3
		C491.4,175.2,497.3,175.2,503.1,174.5z M573.1,265.3c-50.7,19.5-106.8,19.5-157.5,0V245c0.1-16.3,5.2-32.1,14.6-45.4
		c9.4-13.3,22.6-23.3,37.9-28.8v12.9c0,9.4,5,18,13.1,22.7c8.1,4.7,18.1,4.7,26.3,0c8.1-4.7,13.1-13.4,13.1-22.7v-12.8
		c15.3,5.4,28.6,15.4,38,28.7s14.5,29.1,14.5,45.4V265.3z"/>
	<path class="st0" d="M520.6,227.5c0,2.3,0.9,4.5,2.6,6.2c1.6,1.6,3.9,2.6,6.2,2.6h26.3c4.8,0,8.8-3.9,8.8-8.8s-3.9-8.8-8.8-8.8
		h-26.3c-2.3,0-4.5,0.9-6.2,2.6C521.5,223,520.6,225.2,520.6,227.5z"/>
	<path class="st0" d="M344.1,226.4c9.3-11.5-1.8-21.8-4.3-33.9h14.6c9.3,0,18.2-3.7,24.7-10.3s10.3-15.5,10.3-24.7v-105
		c0-9.3-3.7-18.2-10.3-24.7s-15.5-10.3-24.7-10.3H161.9c-9.3,0-18.2,3.7-24.7,10.3s-10.3,15.5-10.3,24.7v105
		c0,9.3,3.7,18.2,10.3,24.7s15.5,10.3,24.7,10.3h113.9c10.3,19.8,28.4,34.4,50,40.1c3.3,0.9,6.8,0.8,10.1-0.3
		C339.2,231.2,342,229.1,344.1,226.4L344.1,226.4z M289.2,180.1L289.2,180.1c-1.4-3.1-4.5-5.1-8-5.1H161.9c-4.6,0-9.1-1.9-12.4-5.1
		s-5.1-7.7-5.1-12.4v-105c0-4.6,1.9-9.1,5.1-12.4s7.7-5.1,12.4-5.1h192.5c4.6,0,9.1,1.9,12.4,5.1s5.1,7.7,5.1,12.4v105
		c0,4.6-1.9,9.1-5.1,12.4s-7.7,5.1-12.4,5.1h-25.1c-18.1,1.2-2.6,33.6,1.3,40.7h0C312,210.8,296.8,197.7,289.2,180.1L289.2,180.1z"
		/>
	<path class="st0" d="M336.9,87.5c0-2.3-0.9-4.5-2.6-6.2c-1.6-1.6-3.9-2.6-6.2-2.6h-140c-4.8,0-8.8,3.9-8.8,8.8s3.9,8.8,8.8,8.8h140
		c2.3,0,4.5-0.9,6.2-2.6C336,92,336.9,89.8,336.9,87.5z"/>
	<path class="st0" d="M336.9,122.5c0-2.3-0.9-4.5-2.6-6.2c-1.6-1.6-3.9-2.6-6.2-2.6h-70c-4.8,0-8.8,3.9-8.8,8.8s3.9,8.8,8.8,8.8h70
		c2.3,0,4.5-0.9,6.2-2.6C336,127,336.9,124.8,336.9,122.5z"/>
	<path class="st0" d="M555.6,367.5H441.7c-10.3-19.8-28.4-34.4-50-40.1c-3.3-0.9-6.8-0.8-10.1,0.3c-3.3,1.1-6.1,3.1-8.2,5.9
		c-9.3,11.5,1.8,21.8,4.3,33.9h-14.6c-9.3,0-18.2,3.7-24.7,10.3s-10.3,15.5-10.3,24.7v105c0,9.3,3.7,18.2,10.3,24.7
		s15.5,10.3,24.7,10.3h192.5c9.3,0,18.2-3.7,24.7-10.3s10.3-15.5,10.3-24.7v-105c0-9.3-3.7-18.2-10.3-24.7S564.9,367.5,555.6,367.5
		L555.6,367.5z M573.1,507.5c0,4.6-1.9,9.1-5.1,12.4s-7.7,5.1-12.4,5.1H363.1c-4.6,0-9.1-1.9-12.4-5.1s-5.1-7.7-5.1-12.4v-105
		c0-4.6,1.9-9.1,5.1-12.4s7.7-5.1,12.4-5.1h25.1c18.1-1.2,2.6-33.6-1.3-40.7h0c18.5,4.9,33.7,18.1,41.3,35.6c1.4,3.1,4.5,5.1,8,5.1
		h119.4c4.6,0,9.1,1.9,12.4,5.1s5.1,7.7,5.1,12.4L573.1,507.5z"/>
	<path class="st0" d="M529.4,463.8h-140c-4.8,0.1-8.6,4-8.6,8.8s3.8,8.7,8.6,8.8h140c4.8-0.1,8.6-4,8.6-8.8S534.2,463.8,529.4,463.8
		z"/>
	<path class="st0" d="M529.4,428.8h-70c-4.8,0.1-8.6,4-8.6,8.8c0,4.8,3.8,8.7,8.6,8.8h70c4.8-0.1,8.6-4,8.6-8.8
		S534.2,428.8,529.4,428.8z"/>
</g>
</svg>
