<?xml version="1.0" encoding="utf-8"?>
<!-- Generator: Adobe Illustrator 24.0.1, SVG Export Plug-In . SVG Version: 6.00 Build 0)  -->
<svg version="1.1" id="Capa_1" xmlns="http://www.w3.org/2000/svg" xmlns:xlink="http://www.w3.org/1999/xlink" x="0px" y="0px"
	 viewBox="0 0 512 512" style="enable-background:new 0 0 512 512;" xml:space="preserve">
<style type="text/css">
	.st0{fill:#FFFFFF;}
</style>
<g>
	<g>
		<path class="st0" d="M463.9,36.1c-2.8-4-8.2-4.9-12.2-2.1c-4,2.8-4.9,8.2-2.2,12.2c2.8,4,8.2,4.9,12.2,2.2
			C465.7,45.5,466.6,40,463.9,36.1z"/>
	</g>
</g>
<g>
	<g>
		<path class="st0" d="M461.7,314.1c-4-2.8-9.4-1.8-12.2,2.2c-2.8,4-1.8,9.4,2.2,12.2c4,2.8,9.4,1.8,12.2-2.1
			C466.6,322.3,465.7,316.9,461.7,314.1z"/>
	</g>
</g>
<g>
	<g>
		<path class="st0" d="M60.3,33.9c-4-2.8-9.4-1.8-12.2,2.1c-2.8,4-1.8,9.4,2.1,12.2c4,2.8,9.4,1.8,12.2-2.2
			C65.2,42.2,64.3,36.7,60.3,33.9z"/>
	</g>
</g>
<g>
	<g>
		<path class="st0" d="M62.5,316.3c-2.8-4-8.2-4.9-12.2-2.2c-4,2.8-4.9,8.2-2.1,12.2c2.8,4,8.2,4.9,12.2,2.1
			C64.3,325.7,65.2,320.2,62.5,316.3z"/>
	</g>
</g>
<g>
	<g>
		<path class="st0" d="M355.2,69.9c-15.4-13.8-33.1-24-52.6-30.5c-20.4-6.7-41.8-8.9-63.5-6.5c-31.7,3.5-62.1,17.8-85.7,40.3
			c-23.6,22.5-39.3,52.3-44.2,83.7c-4.3,27.9-1,56,9.8,81.4c10.2,24.3,26.8,45.5,48,61.3c6.5,4.9,10.4,12.6,10.4,20.8v23v57
			c0,12,7.9,22.3,18.8,25.7c1.6,13.5,7.7,26,17.5,35.8c11.6,11.6,27,17.9,43.3,17.9c31.5,0,57.5-23.9,60.9-54.4
			c10-4,17-13.9,17-25.1v-57v-23c0-8.1,3.9-15.9,10.3-20.7c18.1-13.6,33.1-31.3,43.4-51.4c10.8-21.1,16.3-43.8,16.3-67.6
			C404.8,138.5,386.7,98.1,355.2,69.9z M256.9,462.5c-11.7,0-22.7-4.6-30.9-12.8c-6.2-6.2-10.3-13.8-11.9-22.2h85.7
			C295.7,447.5,278,462.5,256.9,462.5z M317.3,400.5c0,4.9-3.8,9-8.6,9.4c0,0-0.1,0-0.1,0c-0.3,0-0.5,0-0.8,0H204.2
			c-5.2,0-9.5-4.3-9.5-9.5v-10.6h0h122.5L317.3,400.5L317.3,400.5z M317.3,372.4H194.7v-20.1H221h70h26.2L317.3,372.4L317.3,372.4z
			 M256,221.5c9,0,18-2.1,26.2-6.2v119.5h-52.5V215.2C238,219.4,247,221.5,256,221.5z M231.9,196.1l24.1-48.3l24.1,48.3
			C265.8,206.6,246.2,206.6,231.9,196.1z M334.6,285.7c-10.8,8.1-17.3,21.1-17.3,34.7v14.3h-17.5V198.3c0-0.3,0-0.6-0.1-0.9
			c0-0.1,0-0.2,0-0.3c0-0.2-0.1-0.5-0.1-0.7c0-0.1,0-0.2-0.1-0.3c-0.1-0.2-0.1-0.4-0.2-0.7c0-0.1-0.1-0.2-0.1-0.3
			c-0.1-0.2-0.2-0.5-0.3-0.7c0,0,0-0.1-0.1-0.1l-0.1-0.1c0,0,0,0,0,0l-34.9-69.8c-1.5-3-4.5-4.8-7.8-4.8c-3.3,0-6.3,1.9-7.8,4.8
			l-34.9,69.8c0,0,0,0,0,0l-0.1,0.1c0,0,0,0.1-0.1,0.1c-0.1,0.2-0.2,0.5-0.3,0.7c0,0.1-0.1,0.2-0.1,0.3c-0.1,0.2-0.1,0.4-0.2,0.7
			c0,0.1,0,0.2-0.1,0.3c0,0.2-0.1,0.4-0.1,0.7c0,0.1,0,0.2,0,0.3c0,0.3-0.1,0.6-0.1,0.9v136.5h-17.5v-14.3
			c0-13.6-6.5-26.6-17.4-34.8c-39-29.2-58.5-77.5-51-126c8.9-57,57.1-102.9,114.6-109.3c37.9-4.2,74.4,7.4,102.5,32.6
			c27.8,24.9,43.7,60.5,43.7,97.8C387.2,222.4,368,260.7,334.6,285.7z"/>
	</g>
</g>
<g>
	<g>
		<path class="st0" d="M331.8,96c-3.6-3.2-9.1-2.9-12.4,0.7c-3.2,3.6-2.9,9.1,0.7,12.4c20.4,18.3,32.1,44.4,32.1,71.7
			c0,4.8,3.9,8.8,8.8,8.8c4.8,0,8.8-3.9,8.8-8.8C369.7,148.5,355.9,117.6,331.8,96z"/>
	</g>
</g>
<g>
	<g>
		<path class="st0" d="M81,172H40.8c-4.8,0-8.8,3.9-8.8,8.8s3.9,8.8,8.8,8.8H81c4.8,0,8.8-3.9,8.8-8.8S85.8,172,81,172z"/>
	</g>
</g>
<g>
	<g>
		<path class="st0" d="M471.2,172H431c-4.8,0-8.8,3.9-8.8,8.8s3.9,8.8,8.8,8.8h40.2c4.8,0,8.8-3.9,8.8-8.8S476.1,172,471.2,172z"/>
	</g>
</g>
<g>
	<g>
		<path class="st0" d="M119.8,276.1c-2.8-4-8.2-4.9-12.2-2.1L79,294c-4,2.8-4.9,8.2-2.2,12.2c1.7,2.4,4.4,3.7,7.2,3.7
			c1.7,0,3.5-0.5,5-1.6l28.7-20.1C121.6,285.5,122.6,280.1,119.8,276.1z"/>
	</g>
</g>
<g>
	<g>
		<path class="st0" d="M435.2,55.3c-2.8-4-8.2-4.9-12.2-2.2l-28.7,20.1c-4,2.8-4.9,8.2-2.2,12.2c1.7,2.4,4.4,3.7,7.2,3.7
			c1.7,0,3.5-0.5,5-1.6L433,67.5C437,64.7,438,59.2,435.2,55.3z"/>
	</g>
</g>
<g>
	<g>
		<path class="st0" d="M117.7,73.2L89,53.1c-4-2.8-9.4-1.8-12.2,2.2S75,64.7,79,67.5l28.7,20.1c1.5,1.1,3.3,1.6,5,1.6
			c2.8,0,5.5-1.3,7.2-3.7C122.6,81.4,121.6,76,117.7,73.2z"/>
	</g>
</g>
<g>
	<g>
		<path class="st0" d="M433,294L404.4,274c-4-2.8-9.4-1.8-12.2,2.2c-2.8,4-1.8,9.4,2.2,12.2l28.7,20.1c1.5,1.1,3.3,1.6,5,1.6
			c2.8,0,5.5-1.3,7.2-3.7C438,302.3,437,296.8,433,294z"/>
	</g>
</g>
</svg>
