<?xml version="1.0" encoding="utf-8"?>
<!-- Generator: Adobe Illustrator 24.0.1, SVG Export Plug-In . SVG Version: 6.00 Build 0)  -->
<svg version="1.1" id="Layer_1" xmlns="http://www.w3.org/2000/svg" xmlns:xlink="http://www.w3.org/1999/xlink" x="0px" y="0px"
	 viewBox="0 0 700 700" style="enable-background:new 0 0 700 700;" xml:space="preserve">
<style type="text/css">
	.st0{fill:#FFFFFF;}
</style>
<g>
	<path class="st0" d="M541.5,68.9h-383c-19.3,0-37.8,7.7-51.5,21.3s-21.3,32.2-21.3,51.5v276.6c0,19.3,7.7,37.8,21.3,51.5
		s32.2,21.3,51.5,21.3h383c19.3,0,37.8-7.7,51.5-21.3s21.3-32.2,21.3-51.5V141.7c0-19.3-7.7-37.8-21.3-51.5S560.8,68.9,541.5,68.9z
		 M157.9,102.5h383.6c10.4,0,20.4,4.1,27.7,11.5c7.4,7.4,11.5,17.3,11.5,27.7v44.2l-461.4,0v-44.2c0-10.4,4.1-20.4,11.5-27.7
		c7.4-7.4,17.3-11.5,27.7-11.5L157.9,102.5z M541.5,457.5h-383c-10.4,0-20.4-4.1-27.7-11.5c-7.4-7.4-11.5-17.3-11.5-27.7V219h461.4
		v199.4c0,10.4-4.1,20.4-11.5,27.7C561.9,453.4,551.9,457.5,541.5,457.5L541.5,457.5z"/>
	<path class="st0" d="M198.8,143.9c0,14.8-12,26.9-26.9,26.9c-14.8,0-26.9-12-26.9-26.9c0-14.8,12-26.9,26.9-26.9
		C186.8,117,198.8,129.1,198.8,143.9"/>
	<path class="st0" d="M268.2,143.9c0,14.8-12,26.9-26.9,26.9c-14.8,0-26.9-12-26.9-26.9c0-14.8,12-26.9,26.9-26.9
		C256.2,117,268.2,129.1,268.2,143.9"/>
	<path class="st0" d="M341,143.9c0,14.8-12,26.9-26.9,26.9s-26.9-12-26.9-26.9c0-14.8,12-26.9,26.9-26.9S341,129.1,341,143.9"/>
	<path class="st0" d="M245.3,257c-4.1-4.5-10.3-6.5-16.2-5.2c-5.9,1.3-10.8,5.7-12.6,11.5c-1.8,5.8-0.5,12.2,3.6,16.7l51.5,56
		l-51.5,56c-4.1,4.4-5.5,10.7-3.8,16.4s6.5,10.1,12.3,11.5c5.9,1.4,12-0.5,16.1-4.9l62.2-67.8c2.9-3.1,4.5-7.2,4.5-11.5
		c0-4.3-1.6-8.4-4.5-11.5L245.3,257z"/>
	<path class="st0" d="M476.6,385.8H339.4c-6,0-11.5,3.2-14.5,8.4c-3,5.2-3,11.6,0,16.8c3,5.2,8.5,8.4,14.5,8.4h137.2
		c6,0,11.6-3.2,14.6-8.4c3-5.2,3-11.6,0-16.8C488.1,389,482.6,385.8,476.6,385.8z"/>
</g>
</svg>
