<?xml version="1.0" encoding="utf-8"?>
<!-- Generator: Adobe Illustrator 24.0.1, SVG Export Plug-In . SVG Version: 6.00 Build 0)  -->
<svg version="1.1" id="Layer_1" xmlns="http://www.w3.org/2000/svg" xmlns:xlink="http://www.w3.org/1999/xlink" x="0px" y="0px"
	 viewBox="0 0 700 700" style="enable-background:new 0 0 700 700;" xml:space="preserve">
<style type="text/css">
	.st0{fill:#005665;}
</style>
<path class="st0" d="M587.4,237.4L354.1,122.8c-2.6-1.3-5.6-1.3-8.2,0L112.6,237.4c-3.2,1.5-5.2,4.9-5.2,8.4s2.1,6.7,5.2,8.4
	l99.3,48.7v74.1c0,34.7,59,61,137.2,61c78.2,0,137.2-26.1,137.2-61v-73.2l38.1-18.7l10.5,1.9l0,22.8c-11.2,3.9-19.2,14.6-19.2,27.1
	c0,8.8,4.1,16.8,10.3,22l-9.7,25.6c-1.9,4.9,0.6,10.3,5.4,11.9c1.1,0.4,2.2,0.6,3.4,0.6c3.7,0,7.3-2.2,8.8-6l9.7-25.6h0.9h1.5
	l9.1,24.1c1.5,3.7,5,6,8.8,6c1.1,0,2.2-0.2,3.4-0.6c4.9-1.9,7.3-7.3,5.4-11.9l-9.3-24.5c6-5.2,9.9-13.1,9.9-21.7
	c0-12.7-8.2-23.3-19.6-27.3v-28.9c0.2-1.3,0.2-2.6-0.2-3.9c-0.2-1.9-1.1-3.5-2.2-4.9l36.4-17.9c3.2-1.5,5.2-4.9,5.2-8.4
	S590.6,238.9,587.4,237.4L587.4,237.4z M436,405.1c-23.1,9.3-53.9,14.4-87,14.4c-33,0-63.8-5-87-14.4c-19.8-8-31.5-18.5-31.5-28
	v-1.5c6.5,5.4,14.6,10.3,24.3,14.6c25.4,11.4,58.8,17.5,94.3,17.5s68.9-6.2,94.3-17.5c9.7-4.3,17.7-9.3,24.3-14.6v1.5
	C467.6,386.6,455.8,397,436,405.1L436,405.1z M467.6,330.4v11c0,22.6-48.7,47.8-118.5,47.8c-69.8,0-118.5-25.2-118.5-47.8v-29.3
	l115.4,56.6c1.3,0.6,2.6,0.9,4.1,0.9s2.8-0.4,4.1-0.9l113.5-55.8L467.6,330.4z M544.3,347c-5.6,0-10.1-4.5-10.1-10.1
	c0-5.6,4.5-10.1,10.1-10.1c5.6,0,10.1,4.5,10.1,10.1C554.4,342.5,549.7,347,544.3,347z M521.5,265.6l-170-29.1
	c-5-0.9-9.9,2.6-10.8,7.7c-0.9,5,2.6,9.9,7.7,10.8l144.5,24.8L350,350L137.8,245.8L350,141.7l212.2,104.2L521.5,265.6z"/>
</svg>
