<?xml version="1.0" encoding="utf-8"?>
<!-- Generator: Adobe Illustrator 24.0.1, SVG Export Plug-In . SVG Version: 6.00 Build 0)  -->
<svg version="1.1" id="Layer_1" xmlns="http://www.w3.org/2000/svg" xmlns:xlink="http://www.w3.org/1999/xlink" x="0px" y="0px"
	 viewBox="0 0 700 700" style="enable-background:new 0 0 700 700;" xml:space="preserve">
<style type="text/css">
	.st0{fill:#005665;}
</style>
<g>
	<path class="st0" d="M341.3,332.5c2.3,0,4.5-0.9,6.2-2.6s2.6-3.9,2.6-6.2V157.5c0-9.3-3.7-18.2-10.3-24.8
		c-6.6-6.6-15.5-10.3-24.8-10.3H105c-9.3,0-18.2,3.7-24.8,10.3c-6.6,6.6-10.3,15.5-10.3,24.8v385c0,9.3,3.7,18.2,10.3,24.8
		c6.6,6.6,15.5,10.3,24.8,10.3h210c9.3,0,18.2-3.7,24.8-10.3c6.6-6.6,10.3-15.5,10.3-24.8V376.3c0-4.8-3.9-8.8-8.8-8.8
		s-8.8,3.9-8.8,8.8v166.3c0,4.6-1.8,9.1-5.1,12.4s-7.7,5.1-12.4,5.1H105c-4.6,0-9.1-1.8-12.4-5.1s-5.1-7.7-5.1-12.4V525H315
		c4.8,0,8.8-3.9,8.8-8.8c0-4.8-3.9-8.8-8.8-8.8H87.5v-350c0-4.6,1.8-9.1,5.1-12.4s7.7-5.1,12.4-5.1h210c4.6,0,9.1,1.8,12.4,5.1
		s5.1,7.7,5.1,12.4v166.3c0,2.3,0.9,4.5,2.6,6.2S338.9,332.5,341.3,332.5z"/>
	<path class="st0" d="M463.8,245h140c7,0,13.6-2.8,18.6-7.7c4.9-4.9,7.7-11.6,7.7-18.6v-52.5c0-7-2.8-13.6-7.7-18.6
		s-11.6-7.7-18.6-7.7h-140c-7,0-13.6,2.8-18.6,7.7s-7.7,11.6-7.7,18.6v17.5h-26.3c-7,0-13.6,2.8-18.6,7.7S385,203,385,210v131.3
		h-87.5v-17.5c0-7-2.8-13.6-7.7-18.6c-4.9-4.9-11.6-7.7-18.6-7.7H148.8c-7,0-13.6,2.8-18.6,7.7c-4.9,4.9-7.7,11.6-7.7,18.6v52.5
		c0,7,2.8,13.6,7.7,18.6c4.9,4.9,11.6,7.7,18.6,7.7h122.5c7,0,13.6-2.8,18.6-7.7s7.7-11.6,7.7-18.6v-17.5H385V490
		c0,7,2.8,13.6,7.7,18.6s11.6,7.7,18.6,7.7h26.3v17.5c0,7,2.8,13.6,7.7,18.6s11.6,7.7,18.6,7.7h140c7,0,13.6-2.8,18.6-7.7
		s7.7-11.6,7.7-18.6v-52.5c0-7-2.8-13.6-7.7-18.6s-11.6-7.7-18.6-7.7h-140c-7,0-13.6,2.8-18.6,7.7s-7.7,11.6-7.7,18.6v17.5h-26.3
		c-4.8,0-8.8-3.9-8.8-8.8V358.7h35v17.5c0,7,2.8,13.6,7.7,18.6s11.6,7.7,18.6,7.7h140c7,0,13.6-2.8,18.6-7.7s7.7-11.6,7.7-18.6
		v-52.5c0-7-2.8-13.6-7.7-18.6c-4.9-4.9-11.6-7.7-18.6-7.7h-140c-7,0-13.6,2.8-18.6,7.7c-4.9,4.9-7.7,11.6-7.7,18.6v17.5h-35V210
		c0-4.8,3.9-8.8,8.8-8.8h26.3v17.5c0,7,2.8,13.6,7.7,18.6S456.8,245,463.8,245L463.8,245z M280,376.3c0,2.3-0.9,4.5-2.6,6.2
		s-3.9,2.6-6.2,2.6H148.8c-4.8,0-8.8-3.9-8.8-8.8v-52.5c0-4.8,3.9-8.8,8.8-8.8h122.5c2.3,0,4.5,0.9,6.2,2.6s2.6,3.9,2.6,6.2V376.3z
		 M455,481.3c0-4.8,3.9-8.8,8.8-8.8h140c2.3,0,4.5,0.9,6.2,2.6s2.6,3.9,2.6,6.2v52.5c0,2.3-0.9,4.5-2.6,6.2s-3.9,2.6-6.2,2.6h-140
		c-4.8,0-8.8-3.9-8.8-8.8V481.3z M455,323.8c0-4.8,3.9-8.8,8.8-8.8h140c2.3,0,4.5,0.9,6.2,2.6s2.6,3.9,2.6,6.2v52.5
		c0,2.3-0.9,4.5-2.6,6.2s-3.9,2.6-6.2,2.6h-140c-4.8,0-8.8-3.9-8.8-8.8V323.8z M455,166.3c0-4.8,3.9-8.8,8.8-8.8h140
		c2.3,0,4.5,0.9,6.2,2.6c1.6,1.6,2.6,3.9,2.6,6.2v52.5c0,2.3-0.9,4.5-2.6,6.2c-1.6,1.6-3.9,2.6-6.2,2.6h-140c-4.8,0-8.8-3.9-8.8-8.8
		V166.3z"/>
	<path class="st0" d="M218.8,166.3c0,4.8-3.9,8.8-8.8,8.8s-8.8-3.9-8.8-8.8s3.9-8.8,8.8-8.8S218.8,161.4,218.8,166.3"/>
</g>
</svg>
