<?xml version="1.0" encoding="utf-8"?>
<!-- Generator: Adobe Illustrator 24.0.1, SVG Export Plug-In . SVG Version: 6.00 Build 0)  -->
<svg version="1.1" id="Layer_1" xmlns="http://www.w3.org/2000/svg" xmlns:xlink="http://www.w3.org/1999/xlink" x="0px" y="0px"
	 viewBox="0 0 700 700" style="enable-background:new 0 0 700 700;" xml:space="preserve">
<style type="text/css">
	.st0{fill:#005665;stroke:#005665;stroke-width:5;stroke-miterlimit:10;}
	.st1{fill:#FFFFFF;}
	.st2{fill:#005665;stroke:#005665;stroke-width:8;stroke-miterlimit:10;}
</style>
<path class="st0" d="M373.8,563.9c12.2,0,22.2-10,22.2-22.3c0-12.3-9.9-22.3-22.2-22.3s-22.3,10-22.3,22.3
	C351.5,553.9,361.5,563.9,373.8,563.9z"/>
<path class="st1" d="M373.9,528.7c7.1,0,12.7,5.8,12.7,12.9c0,7.1-5.7,12.9-12.7,12.9c-7.1,0-12.9-5.8-12.9-12.9
	C361,534.5,366.7,528.7,373.9,528.7L373.9,528.7z"/>
<path class="st0" d="M397.6,83.8H350c-3.5,0-6.4,2.9-6.4,6.4c0,3.5,2.8,6.4,6.4,6.4h47.6c3.5,0,6.4-2.9,6.4-6.4
	C404,86.7,401.1,83.8,397.6,83.8z"/>
<path class="st0" d="M199.1,249.5h-71.5c-3.5,0-6.4,2.9-6.4,6.4c0,3.5,2.9,6.4,6.4,6.4h71.5c3.5,0,6.4-2.9,6.4-6.4
	C205.5,252.4,202.7,249.5,199.1,249.5z"/>
<path class="st0" d="M127.6,219.1h150.6c3.5,0,6.4-2.9,6.4-6.4c0-3.5-2.9-6.4-6.4-6.4H127.6c-3.5,0-6.4,2.9-6.4,6.4
	S124.1,219.1,127.6,219.1z"/>
<path class="st2" d="M587.2,304h-38.8V105.5c0-31.4-25.5-56.9-56.9-56.9H256.1c-31.4,0-56.9,25.5-56.9,56.9v55.8h-86.3
	c-17.9,0-32.5,14.6-32.5,32.5v82.6c0,17.9,14.6,32.5,32.5,32.5h86.3l0,193.1v28.3c0,31.4,25.5,56.9,56.9,56.9h235.4
	c31.4,0,56.9-25.5,56.9-56.9l0-28.3v-50.7h38.8c17.9,0,32.5-14.6,32.5-32.5v-82.6C619.6,318.6,605,304,587.2,304L587.2,304z
	 M211.9,105.5c0-24.4,19.9-44.2,44.2-44.2h235.4c24.4,0,44.2,19.9,44.2,44.2V119H211.9L211.9,105.5z M93.1,276.3v-82.6
	c0-10.9,8.8-19.8,19.8-19.8h185.3c10.9,0,19.8,8.8,19.8,19.8v82.6c0,10.9-8.8,19.8-19.8,19.8h-8.9c-3.5,0-6.4,2.9-6.4,6.4l-0.5,40.8
	l-48.6-45.5c-1.2-1.1-2.7-1.7-4.3-1.7H112.8C102,296.1,93.1,287.2,93.1,276.3L93.1,276.3z M535.6,530.5c0,24.4-19.9,44.2-44.2,44.2
	H256.1c-24.4,0-44.2-19.9-44.2-44.2v-22h323.8L535.6,530.5z M535.6,495.8H211.9V308.8h15l46.8,43.7c2.5,2.3,5.6,3.6,8.8,3.6
	c1.8,0,3.6-0.3,5.3-1.1c4.8-2.1,7.8-6.7,7.8-12v-34.2h2.5c17.9,0,32.5-14.6,32.5-32.5v-82.6c0-17.9-14.6-32.5-32.5-32.5h-86.3v-29.6
	h323.8v172.3h-62.5l-46.8-43.7c-3.8-3.6-9.3-4.5-14.1-2.5c-4.8,2.1-7.8,6.7-7.8,12v34.2h-2.5c-17.9,0-32.5,14.6-32.5,32.5v82.6
	c0,17.9,14.6,32.5,32.5,32.5h133.8L535.6,495.8z M606.9,419.1c0,10.9-8.8,19.8-19.8,19.8H401.8c-10.9,0-19.8-8.8-19.8-19.8v-82.6
	c0-10.9,8.8-19.8,19.8-19.8h8.9c3.5,0,6.4-2.9,6.4-6.4l0.5-40.8l48.6,45.5c1.2,1.1,2.7,1.7,4.3,1.7h116.6c10.9,0,19.8,8.8,19.8,19.8
	L606.9,419.1z"/>
<path class="st0" d="M572.4,350.6h-71.5c-3.5,0-6.4,2.9-6.4,6.4c0,3.5,2.9,6.4,6.4,6.4h71.5c3.5,0,6.4-2.9,6.4-6.4
	C578.8,353.5,575.9,350.6,572.4,350.6z"/>
<path class="st0" d="M572.4,393.7H421.7c-3.5,0-6.4,2.9-6.4,6.4c0,3.5,2.9,6.4,6.4,6.4h150.6c3.5,0,6.4-2.9,6.4-6.4
	C578.7,396.6,575.9,393.7,572.4,393.7L572.4,393.7z"/>
</svg>
