<?xml version="1.0" encoding="utf-8"?>
<!-- Generator: Adobe Illustrator 24.0.1, SVG Export Plug-In . SVG Version: 6.00 Build 0)  -->
<svg version="1.1" id="Layer_1" xmlns="http://www.w3.org/2000/svg" xmlns:xlink="http://www.w3.org/1999/xlink" x="0px" y="0px"
	 viewBox="0 0 700 700" style="enable-background:new 0 0 700 700;" xml:space="preserve">
<style type="text/css">
	.st0{fill:#324A5A;}
</style>
<g>
	<path class="st0" d="M457.76,32.64c0.19,0.43,0.6,0.49,1,0.61c5.95,1.92,8.56,8.93,5.38,14.43c-3.21,5.54-6.39,11.1-9.59,16.65
		c-3.25,5.64-6.52,11.27-9.76,16.91c-0.93,1.61-0.93,1.65,0.5,2.74c6.6,5,12.82,10.44,18.58,16.39
		c21.14,21.86,35.01,47.63,41.5,77.33c2.12,9.71,3.31,19.55,3.39,29.5c0,0.62,0.03,1.24,0.02,1.86c-0.04,1.62-0.12,1.7-1.8,1.75
		c-0.83,0.02-1.65,0.01-2.48,0.01c-103.04,0-206.08,0-309.12,0c-0.1,0-0.21,0-0.31,0c-4.2-0.03-3.9,0.43-3.76-3.81
		c0.43-12.95,2.17-25.71,5.66-38.21c7.96-28.44,22.72-52.77,44.09-73.13c4.2-4,8.62-7.72,13.23-11.23c0.49-0.38,1-0.74,1.46-1.15
		c0.34-0.3,0.39-0.7,0.16-1.11c-0.46-0.81-0.92-1.61-1.39-2.42c-5.79-10.02-11.57-20.04-17.36-30.05c-0.46-0.8-0.93-1.61-1.37-2.43
		c-3.27-6.16,0.73-12.84,5.72-14.05c0.4-0.1,0.8-0.18,1.03-0.59c1.24,0,2.48,0,3.72,0c0.16,0.13,0.3,0.33,0.48,0.36
		c3.31,0.67,5.37,2.82,6.98,5.63c5.8,10.13,11.64,20.23,17.49,30.33c2.16,3.72,1.41,3.3,4.99,1.41
		c23.4-12.32,48.34-18.31,74.74-18.31c7.65,0,15.28,0.61,22.84,1.77c13.63,2.1,26.8,5.85,39.45,11.37
		c4.16,1.82,8.24,3.83,12.25,5.95c1.59,0.84,1.61,0.82,2.6-0.8c0.32-0.53,0.64-1.06,0.95-1.6c5.67-9.84,11.39-19.66,17-29.55
		c1.7-2.99,3.8-5.36,7.21-6.32c0.07-0.02,0.11-0.17,0.17-0.26C454.86,32.64,456.31,32.64,457.76,32.64z M290.63,151.26
		c10.74,0.2,19.82-9.03,19.73-19.97c-0.07-9.23-7.22-19.58-19.79-19.64c-11.21-0.05-19.91,8.66-19.88,19.86
		C270.73,143.95,281.04,151.59,290.63,151.26z M429.39,131.38c0.26-9.25-7.1-19.61-19.64-19.73c-11.15-0.11-19.94,8.5-19.97,19.77
		c-0.02,12.47,10.3,19.92,19.85,19.9C420.46,151.3,429.69,142.21,429.39,131.38z"/>
	<path class="st0" d="M350.22,230.66c51.47,0,102.94,0,154.41,0.01c4.66,0,4.15-0.57,4.15,4.1c0.01,96.43,0.01,192.86,0,289.29
		c0,4.98,0.67,4.28-4.22,4.3c-10.65,0.03-21.29,0.01-31.94,0.01c-0.83,0-1.65,0-2.48,0.05c-0.57,0.04-0.96,0.41-0.99,0.99
		c-0.06,1.03-0.06,2.06-0.06,3.1c0,31.32-0.01,62.63,0,93.95c0,3.63-0.21,7.22-1.09,10.76c-3.63,14.55-15.61,27.37-32.96,29.72
		c-23.28,3.15-40.67-12.94-44.37-30.89c-0.67-3.25-0.97-6.53-0.97-9.85c0-31.11,0.01-62.22-0.01-93.33c0-5.18,0.62-4.49-4.37-4.5
		c-23.77-0.02-47.54-0.01-71.32-0.01c-4.01,0-3.7-0.29-3.7,3.66c0,31.52-0.01,63.05,0,94.57c0,3.94-0.2,7.86-1.4,11.65
		c-5.1,16.23-16.11,25.74-32.79,28.77c-23.51,2.83-40.7-13.35-44.26-31.11c-0.65-3.26-0.95-6.54-0.95-9.85
		c0-31.11,0.01-62.22-0.01-93.33c0-4.96,0.6-4.34-4.2-4.36c-10.54-0.03-21.08-0.01-31.62-0.01c-0.83,0-1.65,0.02-2.48-0.02
		c-1.02-0.05-1.32-0.32-1.36-1.28c-0.04-0.93-0.02-1.86-0.02-2.79c0-40.62,0-81.24,0-121.86c0-55.81,0-111.62,0-167.44
		c0-1.03,0-2.07,0.03-3.1c0.02-0.71,0.4-1.17,1.14-1.2c1.03-0.03,2.07-0.03,3.1-0.03C247.08,230.66,298.65,230.66,350.22,230.66z"/>
	<path class="st0" d="M171.38,330.12c0,26.15-0.02,52.3,0.02,78.45c0.01,4.91-0.54,9.72-2.34,14.29
		c-5.75,14.58-16.36,23.6-31.85,25.74c-23.5,3.26-40.73-13.27-44.27-30.98c-0.59-2.95-0.95-5.91-0.95-8.92
		c0-52.51-0.12-105.02,0.07-157.52c0.06-17.22,8.21-29.98,24-36.97c23.79-10.53,50.02,4.55,54.65,28.83
		c0.57,2.97,0.67,5.95,0.67,8.95C171.38,278.03,171.38,304.07,171.38,330.12z"/>
	<path class="st0" d="M608.03,329.98c0,26.15-0.02,52.3,0.02,78.45c0.01,5.23-0.62,10.32-2.63,15.16
		c-5.91,14.24-16.49,22.99-31.73,25.03c-23.02,3.08-41.09-12.96-44.45-32.69c-0.4-2.33-0.57-4.73-0.57-7.1
		c-0.03-52.61-0.06-105.22-0.01-157.83c0.02-20.09,13.37-33.5,27.06-38.06c23.25-7.74,47.15,6.98,51.62,29.95
		c0.58,2.97,0.68,5.95,0.69,8.94c0,0.21,0,0.41,0,0.62C608.03,278.3,608.03,304.14,608.03,329.98z"/>
</g>
</svg>
