<?xml version="1.0" encoding="utf-8"?>
<!-- Generator: Adobe Illustrator 24.0.1, SVG Export Plug-In . SVG Version: 6.00 Build 0)  -->
<svg version="1.1" id="Layer_1" xmlns="http://www.w3.org/2000/svg" xmlns:xlink="http://www.w3.org/1999/xlink" x="0px" y="0px"
	 viewBox="0 0 70 70" style="enable-background:new 0 0 70 70;" xml:space="preserve">
<style type="text/css">
	.st0{fill:#324A5A;}
</style>
<g>
	<g>
		<path class="st0" d="M51.12,20.93c-0.03,0-0.05,0-0.08,0l-0.07,0l-31.96,0l-0.04,0l-0.11,0c-0.19,0-0.35,0-0.48-0.13
			c-0.13-0.14-0.13-0.3-0.12-0.51l0-0.08c0.05-1.44,0.24-2.76,0.6-4.03c0.83-2.97,2.39-5.56,4.65-7.71c0.42-0.4,0.87-0.79,1.38-1.17
			l-1.84-3.19c-0.05-0.09-0.1-0.18-0.15-0.26c-0.2-0.37-0.21-0.8-0.04-1.18c0.16-0.35,0.45-0.62,0.79-0.72l0.05-0.08h0.68l0.08,0.06
			c0.47,0.12,0.72,0.47,0.86,0.72c0.6,1.05,1.2,2.09,1.81,3.13l0.03,0.05c0.02-0.01,0.04-0.02,0.06-0.03
			c2.43-1.28,5.08-1.93,7.88-1.93c0.8,0,1.61,0.06,2.41,0.19c1.45,0.22,2.85,0.63,4.16,1.2c0.38,0.16,0.77,0.35,1.19,0.57
			c0.01-0.02,0.03-0.05,0.04-0.07l0.48-0.84c0.42-0.72,0.85-1.47,1.27-2.21c0.14-0.25,0.38-0.6,0.81-0.76l0.05-0.08h0.84l0.04,0.1
			c0.36,0.13,0.64,0.41,0.78,0.77c0.15,0.38,0.11,0.81-0.09,1.17c-0.2,0.34-0.4,0.69-0.6,1.03l-0.82,1.42
			c-0.18,0.31-0.36,0.63-0.54,0.94c0.69,0.53,1.32,1.09,1.88,1.67c2.22,2.3,3.69,5.04,4.37,8.15c0.23,1.05,0.35,2.1,0.36,3.12
			l0,0.06c0,0.05,0,0.09,0,0.14c-0.01,0.34-0.15,0.48-0.5,0.49C51.2,20.93,51.16,20.93,51.12,20.93z M50.97,20.29l0.08,0
			c0.01,0,0.03,0,0.04,0l0-0.05c-0.01-0.97-0.12-1.98-0.34-2.98c-0.65-2.99-2.07-5.63-4.21-7.84c-0.56-0.58-1.2-1.14-1.88-1.66
			c-0.28-0.21-0.31-0.39-0.14-0.7c0.2-0.34,0.39-0.68,0.59-1.02l0.82-1.42c0.2-0.35,0.4-0.69,0.6-1.04
			c0.11-0.19,0.13-0.42,0.05-0.62c-0.08-0.2-0.23-0.34-0.43-0.41c-0.03-0.01-0.07-0.02-0.12-0.05H45.8
			c-0.01,0.01-0.03,0.01-0.04,0.01c-0.23,0.06-0.39,0.21-0.56,0.5c-0.42,0.74-0.85,1.49-1.27,2.22l-0.48,0.84
			c-0.03,0.06-0.07,0.12-0.1,0.17c-0.16,0.26-0.33,0.39-0.69,0.2c-0.45-0.24-0.85-0.43-1.24-0.61c-1.26-0.55-2.6-0.94-4-1.15
			c-0.77-0.12-1.55-0.18-2.31-0.18c-2.69,0-5.24,0.62-7.58,1.86c-0.05,0.03-0.09,0.05-0.13,0.07c-0.13,0.07-0.26,0.15-0.42,0.1
			c-0.17-0.05-0.24-0.18-0.34-0.34l-0.06-0.1c-0.61-1.04-1.21-2.09-1.81-3.14c-0.15-0.26-0.3-0.39-0.51-0.43
			c-0.03-0.01-0.06-0.02-0.09-0.03H24c-0.06,0.03-0.11,0.04-0.14,0.05c-0.17,0.04-0.33,0.19-0.41,0.37
			c-0.05,0.12-0.12,0.35,0.02,0.62c0.04,0.08,0.09,0.15,0.13,0.23l1.95,3.37c0.1,0.18,0.07,0.38-0.08,0.51
			c-0.04,0.04-0.09,0.07-0.14,0.11L25.3,7.8c-0.49,0.38-0.93,0.75-1.34,1.14c-2.17,2.06-3.67,4.56-4.47,7.42
			c-0.34,1.22-0.53,2.49-0.57,3.88l0,0.06l0.07,0l0.02,0L50.97,20.29z M41.16,14.78c-0.63,0-1.24-0.26-1.69-0.71
			c-0.44-0.44-0.68-1.02-0.68-1.67c0-0.65,0.25-1.25,0.69-1.69c0.44-0.44,1.03-0.67,1.67-0.67c0.01,0,0.02,0,0.02,0
			c0.65,0.01,1.25,0.26,1.69,0.71c0.43,0.45,0.67,1.05,0.66,1.65c0.01,0.61-0.22,1.2-0.66,1.65C42.42,14.51,41.8,14.78,41.16,14.78
			C41.16,14.78,41.16,14.78,41.16,14.78z M41.16,10.68c-0.47,0-0.9,0.17-1.22,0.49c-0.32,0.32-0.5,0.76-0.5,1.23
			c0,0.6,0.26,0.99,0.49,1.22c0.33,0.33,0.79,0.52,1.24,0.52c0,0,0,0,0,0c0.46,0,0.92-0.2,1.25-0.54c0.32-0.33,0.49-0.76,0.48-1.2
			l0-0.01l0-0.01c0.01-0.43-0.17-0.87-0.48-1.2c-0.22-0.23-0.62-0.51-1.24-0.52C41.17,10.68,41.16,10.68,41.16,10.68z M28.8,14.77
			c-0.59,0-1.17-0.24-1.6-0.66c-0.46-0.44-0.71-1.05-0.71-1.7c0-0.65,0.24-1.25,0.69-1.69c0.44-0.44,1.04-0.68,1.68-0.68
			c0,0,0.01,0,0.01,0c1.47,0.01,2.36,1.2,2.37,2.35c0,0.63-0.25,1.26-0.71,1.71c-0.45,0.44-1.04,0.69-1.65,0.68
			C28.84,14.77,28.82,14.77,28.8,14.77z M28.84,10.68c-0.47,0-0.91,0.18-1.23,0.5c-0.32,0.32-0.5,0.76-0.5,1.24
			c0,0.62,0.28,1.02,0.52,1.24c0.33,0.31,0.78,0.49,1.21,0.48l0.01,0l0.01,0c0.44,0.01,0.86-0.17,1.19-0.49
			c0.34-0.33,0.53-0.79,0.52-1.25C30.57,11.55,29.93,10.68,28.84,10.68C28.85,10.68,28.85,10.68,28.84,10.68z"/>
	</g>
	<g>
		<path class="st0" d="M26.8,68.13c-2.36,0-3.97-1.73-4.33-3.51c-0.07-0.34-0.1-0.71-0.1-1.08l0-1.07c0-2.86,0-5.72,0-8.58
			c0-0.05,0-0.09,0-0.13c-0.03,0-0.07,0-0.12,0c-0.75,0-1.5,0-2.25,0l-1.08,0c-0.07,0-0.14,0-0.21,0c-0.27-0.01-0.43-0.17-0.44-0.44
			c0-0.08,0-0.16,0-0.23l0-0.07l0-12.6l0-17.31c0-0.12,0-0.22,0-0.33c0.01-0.25,0.18-0.43,0.43-0.43c0.11,0,0.22,0,0.33,0l19.31,0
			c4.22,0,8.44,0,12.66,0c0,0,0,0,0,0c0.05,0,0.1,0,0.14,0c0.19,0,0.35-0.01,0.49,0.13c0.13,0.13,0.13,0.29,0.13,0.49
			c0,0.04,0,0.08,0,0.13c0,9.97,0,19.94,0,29.91c0,0.06,0,0.11,0,0.16c0,0.19,0.01,0.35-0.12,0.48c-0.13,0.13-0.29,0.13-0.48,0.12
			c-0.04,0-0.1,0-0.16,0c-0.75,0-1.5,0-2.25,0l-1.05,0c-0.02,0-0.03,0-0.04,0c0,0.04,0,0.07,0,0.11c0,3.24,0,6.48,0,9.71
			c0,0.32-0.01,0.75-0.12,1.19c-0.44,1.77-1.88,3.07-3.68,3.31c-2.68,0.36-4.54-1.51-4.94-3.45c-0.07-0.34-0.11-0.71-0.11-1.08
			l0-1.93c0-2.57,0-5.15,0-7.72c0-0.05,0-0.1,0-0.15c-0.04,0-0.08,0-0.13,0c-1.9,0-3.81,0-5.71,0l-1.67,0l-0.06,0l0,0.06l0,1.4
			c0,2.79,0,5.59,0,8.38c0,0.41-0.02,0.86-0.16,1.3c-0.56,1.78-1.78,2.86-3.64,3.19l-0.02,0C27.2,68.12,26.99,68.13,26.8,68.13z
			 M22.47,53.12c0.16,0,0.3,0.01,0.41,0.13c0.13,0.13,0.13,0.29,0.13,0.5c0,0.04,0,0.09,0,0.15c0,2.86,0,5.72,0,8.58l0,1.07
			c0,0.34,0.03,0.65,0.09,0.96c0.33,1.64,1.92,3.23,4.21,2.96c1.62-0.3,2.64-1.2,3.13-2.75c0.11-0.36,0.13-0.75,0.13-1.11
			c0-2.79,0-5.59,0-8.38l0-1.4l0-0.08c0-0.19,0-0.36,0.13-0.49c0.13-0.13,0.29-0.13,0.5-0.13l0.08,0l1.66,0c1.9,0,3.81,0,5.71,0
			c0.05,0,0.11,0,0.15,0c0.19,0,0.36-0.01,0.49,0.13c0.13,0.13,0.13,0.3,0.13,0.51c0,0.04,0,0.1,0,0.15c0,2.57,0,5.15,0,7.72l0,1.93
			c0,0.34,0.03,0.65,0.09,0.95c0.34,1.66,1.94,3.25,4.23,2.94c1.53-0.21,2.76-1.32,3.14-2.83c0.09-0.37,0.1-0.75,0.1-1.03
			c0-3.24,0-6.48,0-9.71c0-0.11,0-0.23,0.01-0.34c0.01-0.22,0.18-0.39,0.4-0.4c0.09-0.01,0.18-0.01,0.27-0.01l1.06,0
			c0.75,0,1.5,0,2.25,0c0.04,0,0.08,0,0.12,0c0-0.04,0-0.08,0-0.13c0-9.97,0-19.94,0-29.91c0-0.04,0-0.07,0-0.1
			c-0.03,0-0.07,0-0.11,0c0,0,0,0,0,0c-4.22,0-8.44,0-12.66,0l-19.3,0c-0.04,0-0.08,0-0.12,0c0,0.04,0,0.08,0,0.12l0,17.32l0,12.6
			l0,0.07c0,0.01,0,0.02,0,0.03c0.01,0,0.01,0,0.02,0l1.08,0c0.75,0,1.5,0,2.25,0c0.05,0,0.1,0,0.14,0
			C22.42,53.12,22.45,53.12,22.47,53.12z"/>
	</g>
	<g>
		<path class="st0" d="M12.4,45.56c-2.26,0-3.93-1.69-4.29-3.5C8.04,41.7,8,41.38,8,41.07c0-1.49,0-2.98,0-4.47
			C8,32.72,8,28.72,8.01,24.78c0.01-1.92,0.93-3.34,2.67-4.11c1.23-0.54,2.61-0.5,3.79,0.12c1.21,0.63,2.05,1.76,2.3,3.09
			c0.07,0.34,0.07,0.68,0.07,0.98l0,8.08l0,2.05c0,2.02,0,4.04,0,6.06c0,0.63-0.08,1.14-0.26,1.6c-0.65,1.64-1.87,2.63-3.55,2.86
			C12.82,45.54,12.61,45.56,12.4,45.56z M12.46,20.93c-0.51,0-1.03,0.11-1.52,0.32c-1.51,0.67-2.28,1.86-2.29,3.53
			c-0.01,3.94-0.01,7.94-0.01,11.81c0,1.49,0,2.98,0,4.47c0,0.27,0.03,0.55,0.09,0.86c0.34,1.69,2.01,3.25,4.22,2.95
			c1.45-0.2,2.47-1.03,3.04-2.46c0.15-0.38,0.22-0.81,0.22-1.36c0-2.02,0-4.04,0-6.07l0-4.07l0-6.06c0-0.28-0.01-0.57-0.06-0.86
			c-0.22-1.14-0.94-2.1-1.97-2.64C13.64,21.07,13.05,20.93,12.46,20.93z"/>
	</g>
	<g>
		<path class="st0" d="M57.54,45.56c-2.33,0-4-1.78-4.32-3.69c-0.04-0.25-0.06-0.51-0.06-0.79c0-5.49-0.01-10.86,0-16.32
			c0-2.23,1.52-3.74,3.02-4.24c1.21-0.4,2.54-0.27,3.64,0.37c1.1,0.64,1.87,1.72,2.11,2.97c0.07,0.34,0.08,0.68,0.08,0.98l0,0.07
			l0,10.14c0,2,0,3.99,0,5.99c0,0.66-0.09,1.2-0.3,1.69c-0.66,1.6-1.89,2.56-3.53,2.78C57.96,45.54,57.75,45.56,57.54,45.56z
			 M57.59,20.93c-0.41,0-0.82,0.07-1.22,0.2c-1.19,0.4-2.58,1.58-2.58,3.63c0,5.46,0,10.83,0,16.32c0,0.24,0.02,0.47,0.05,0.68
			c0.3,1.77,1.97,3.42,4.24,3.12c1.43-0.19,2.45-1,3.03-2.39c0.17-0.41,0.25-0.87,0.25-1.44c0-2,0-3.99,0-5.99l0-10.14l0-0.06
			c0-0.28-0.01-0.58-0.07-0.87c-0.21-1.06-0.86-1.99-1.81-2.54C58.9,21.11,58.25,20.93,57.59,20.93z"/>
	</g>
</g>
</svg>
