<?xml version="1.0" encoding="utf-8"?>
<!-- Generator: Adobe Illustrator 24.0.1, SVG Export Plug-In . SVG Version: 6.00 Build 0)  -->
<svg version="1.1" id="Layer_1" xmlns="http://www.w3.org/2000/svg" xmlns:xlink="http://www.w3.org/1999/xlink" x="0px" y="0px"
	 viewBox="0 0 70 70" style="enable-background:new 0 0 70 70;" xml:space="preserve">
<style type="text/css">
	.st0{fill:#324A5A;}
</style>
<g>
	<g>
		<path class="st0" d="M35.54,18.09l-0.03-0.39C34.69,6.93,40.19,4.22,48.06,1.56l0.38-0.13l0.06,0.39
			c0.77,4.68-0.19,8.48-2.86,11.3c-2.15,2.27-5.42,3.91-9.71,4.88L35.54,18.09z M47.89,2.33C40.4,4.89,35.54,7.44,36.16,17.26
			C45.07,15.14,49.02,10.12,47.89,2.33z"/>
	</g>
	<g>
		<path class="st0" d="M47.62,68.57c-2.68,0-4.87-0.98-6.79-1.85c-1.57-0.7-2.92-1.31-4.26-1.31c-1.35,0-2.94,0.64-4.61,1.32
			c-2.14,0.86-4.56,1.84-7.24,1.84c-3.24,0-7.69-4.14-11.35-10.54C9.32,50.95,7,42.58,7,35.05c0-6.9,3.34-11.3,6.14-13.78
			c3.34-2.96,7.67-4.73,11.58-4.73l0.08,0c2.66,0.02,5.06,1.24,7.18,2.31c1.67,0.84,3.24,1.64,4.58,1.64
			c1.55-0.09,3.44-0.88,5.44-1.72c2.49-1.04,5.31-2.23,8-2.23c5,0,9.79,3.35,12.12,6.45l0.19,0.26l-0.25,0.21
			c-5.68,4.74-8.57,9.17-8.57,13.17c0,6.53,3.34,8.9,8.4,12.49c0.31,0.22,0.62,0.44,0.94,0.67L63,49.91l-0.04,0.21
			c-0.78,4.32-2.9,8.87-5.8,12.49C54.1,66.45,50.71,68.57,47.62,68.57z M36.56,64.73c1.49,0,2.97,0.67,4.54,1.37
			c1.87,0.84,3.98,1.79,6.52,1.79c2.83,0,6.12-2.08,9.02-5.7c2.74-3.43,4.83-7.89,5.62-11.98c-0.26-0.18-0.51-0.36-0.76-0.54
			c-5.04-3.58-8.69-6.16-8.69-13.04c0-4.15,2.88-8.68,8.56-13.48c-2.3-2.9-6.75-5.93-11.38-5.93c-2.55,0-5.18,1.11-7.73,2.17
			c-2.06,0.86-4.01,1.68-5.67,1.77l-0.02,0c-1.5,0-3.15-0.83-4.89-1.71c-2.08-1.05-4.43-2.24-6.96-2.24h-0.06
			c-3.68,0.02-7.92,1.76-11.07,4.56c-2.7,2.39-5.91,6.63-5.91,13.27c0,7.41,2.29,15.66,6.27,22.64c3.54,6.19,7.76,10.2,10.76,10.2
			c2.54,0,4.9-0.95,6.98-1.79C33.44,65.39,35.08,64.73,36.56,64.73z"/>
	</g>
</g>
</svg>
