<?xml version="1.0" encoding="utf-8"?>
<!-- Generator: Adobe Illustrator 24.0.1, SVG Export Plug-In . SVG Version: 6.00 Build 0)  -->
<svg version="1.1" id="Layer_1" xmlns="http://www.w3.org/2000/svg" xmlns:xlink="http://www.w3.org/1999/xlink" x="0px" y="0px"
	 viewBox="0 0 392 470.4" style="enable-background:new 0 0 392 470.4;" xml:space="preserve">
<style type="text/css">
	.st0{fill:#324A5A;}
	.st1{fill:none;}
</style>
<path class="st0" d="M289.45,0c-52.35,17.68-93.14,35.37-87.32,112C254.47,100.21,301.08,70.74,289.45,0"/>
<path class="st0" d="M123.2,106.4C72.8,106.4,0,151.2,0,235.2c0,117.6,78.4,235.2,123.2,235.2c33.6,0,61.6-22.4,84-22.4
	c22.4,0,44.8,22.4,78.4,22.4c44.8,0,95.2-67.2,106.4-128.8c-39.2-28-67.2-44.8-67.2-95.2c0-33.6,28-67.2,61.6-95.2
	c-16.8-22.4-50.4-44.8-84-44.8s-69.73,26.58-95.2,28C184.8,134.4,156.8,106.4,123.2,106.4L123.2,106.4z"/>
<rect class="st1" width="392" height="470.4"/>
</svg>
