<?xml version="1.0" encoding="utf-8"?>
<!-- Generator: Adobe Illustrator 24.0.1, SVG Export Plug-In . SVG Version: 6.00 Build 0)  -->
<svg version="1.1" id="Layer_1" xmlns="http://www.w3.org/2000/svg" xmlns:xlink="http://www.w3.org/1999/xlink" x="0px" y="0px"
	 viewBox="0 0 70 70" style="enable-background:new 0 0 70 70;" xml:space="preserve">
<style type="text/css">
	.st0{fill:#324A5A;}
</style>
<g>
	<g>
		<path class="st0" d="M34.97,69l-7.78-4.48v-8.96l7.04-4.04v-4.87l-6.27-3.58l-2.63,2.63l0.85,0.49v8.96l-7.78,4.48l-7.78-4.48
			v-8.96l7.78-4.48l5.66,3.19l2.63-2.63l-2.14-1.22v-5.29h-7.9l0,3.74l-7.78,4.48L1.09,39.5v-8.96l7.73-4.48l7.78,4.48v3.74h7.95
			l0-5.3l2.14-1.22l-2.63-2.63l-5.66,3.24l-7.78-4.48v-8.96l7.78-4.48l7.73,4.48v8.96l-0.79,0.44l2.63,2.63l6.27-3.58v-4.87
			l-7.04-4.09V5.48L34.97,1l7.78,4.53v8.96l-7.04,4.04v4.87l6.27,3.58l2.58-2.63l-0.79-0.44v-8.96l7.78-4.48l7.83,4.48v8.96
			l-7.78,4.48l-5.66-3.24l-2.63,2.63l2.14,1.22v5.29h7.9v-3.74l7.78-4.48l7.78,4.48v8.96l-7.78,4.48l-7.78-4.48v-3.74h-7.9v5.35
			l-2.14,1.22l2.63,2.63l5.61-3.24l7.78,4.48v8.96l-7.78,4.48l-7.78-4.48v-8.96l0.85-0.49l-2.63-2.63l-6.27,3.58v4.87l7.04,4.04
			v8.96L34.97,69z M27.63,64.27l7.34,4.22l7.34-4.22v-8.45l-7.04-4.04V46.4l6.78-3.88l3.27,3.27l-1.12,0.65v8.45l7.34,4.22
			l7.34-4.22v-8.45l-7.34-4.22l-5.68,3.28l-3.28-3.28l2.42-1.37v-5.53h8.78v3.93l7.34,4.22l7.34-4.22V30.8l-7.34-4.22l-7.34,4.22
			v3.93h-8.78v-5.48l-2.42-1.37l3.28-3.28l5.73,3.28l7.34-4.22v-8.45l-7.39-4.22l-7.34,4.22v8.44l1.07,0.6l-3.22,3.28l-6.78-3.88
			v-5.38l7.04-4.04V5.78l-7.34-4.28l-7.34,4.22v8.45l7.04,4.09v5.38l-6.78,3.88l-3.28-3.28l1.07-0.6v-8.45l-7.29-4.22l-7.34,4.22
			v8.45l7.34,4.22l5.73-3.28l3.28,3.28l-2.42,1.37l0,5.48h-8.83V30.8l-7.34-4.22L1.53,30.8v8.45l7.34,4.22l7.34-4.22l0-3.93h8.78
			v5.48l2.42,1.37l-3.27,3.27l-5.73-3.23l-7.34,4.23v8.45l7.34,4.22l7.34-4.22v-8.45l-1.12-0.65l3.27-3.27l6.78,3.88v5.38
			l-7.04,4.04V64.27z"/>
	</g>
	<g>
		<path class="st0" d="M51.25,27.02l-6.45-3.72v-7.4l6.45,3.72V27.02z M45.24,23.04l5.57,3.22v-6.38l-5.57-3.22V23.04z"/>
	</g>
	<g>
		<path class="st0" d="M51.85,27.02v-7.4l6.45-3.72v7.4L51.85,27.02z M52.29,19.87v6.38l5.57-3.22v-6.38L52.29,19.87z"/>
	</g>
	<g>
		<path class="st0" d="M51.55,19.12l-6.45-3.72l6.45-3.72L58,15.39L51.55,19.12z M45.98,15.39l5.57,3.22l5.57-3.22l-5.57-3.22
			L45.98,15.39z"/>
	</g>
	<g>
		<path class="st0" d="M18.7,27.02v-7.4l6.45-3.72v7.4L18.7,27.02z M19.14,19.87v6.38l5.57-3.22v-6.38L19.14,19.87z"/>
	</g>
	<g>
		<path class="st0" d="M18.4,19.12l-6.45-3.72l6.45-3.72l6.45,3.72L18.4,19.12z M12.83,15.39l5.57,3.22l5.57-3.22l-5.57-3.22
			L12.83,15.39z"/>
	</g>
	<g>
		<path class="st0" d="M18.1,27.02l-6.45-3.72v-7.24h0.33l6.12,3.56V27.02z M12.09,23.04l5.57,3.22v-6.38l-5.57-3.24V23.04z"/>
	</g>
	<g>
		<path class="st0" d="M8.82,34.71l-6.39-3.73l6.45-3.72l6.39,3.73L8.82,34.71z M3.3,30.99l5.52,3.22l5.57-3.22l-5.52-3.22
			L3.3,30.99z"/>
	</g>
	<g>
		<path class="st0" d="M8.57,42.6l-6.45-3.67v-7.45l6.45,3.72V42.6z M2.56,38.68l5.57,3.17v-6.38l-5.57-3.22V38.68z"/>
	</g>
	<g>
		<path class="st0" d="M9.17,42.61v-7.4l6.45-3.72v7.4L9.17,42.61z M9.61,35.46v6.38l5.57-3.22v-6.38L9.61,35.46z"/>
	</g>
	<g>
		<path class="st0" d="M18.4,50.3l-6.45-3.73l6.45-3.67l6.45,3.73L18.4,50.3z M12.83,46.58l5.57,3.22l5.57-3.17l-5.57-3.21
			L12.83,46.58z"/>
	</g>
	<g>
		<path class="st0" d="M18.1,58.25l-6.45-3.73v-7.24h0.33l6.12,3.56V58.25z M12.09,54.27l5.57,3.22v-6.38l-5.57-3.24V54.27z"/>
	</g>
	<g>
		<path class="st0" d="M18.7,58.25v-7.4l6.45-3.73v7.4L18.7,58.25z M19.14,51.11v6.38l5.57-3.22v-6.38L19.14,51.11z"/>
	</g>
	<g>
		<path class="st0" d="M51.25,58.25l-6.45-3.72v-7.4l6.45,3.72V58.25z M45.24,54.27l5.57,3.22v-6.38l-5.57-3.22V54.27z"/>
	</g>
	<g>
		<path class="st0" d="M51.85,58.25v-7.4l6.45-3.72v7.4L51.85,58.25z M52.29,51.11v6.38l5.57-3.22v-6.38L52.29,51.11z"/>
	</g>
	<g>
		<path class="st0" d="M51.55,50.3l-6.45-3.72l6.45-3.73L58,46.63L51.55,50.3z M45.98,46.58l5.57,3.22l5.57-3.17l-5.57-3.27
			L45.98,46.58z"/>
	</g>
	<g>
		<path class="st0" d="M34.97,34.66l-9.14-5.28l9.14-5.23l9.14,5.28L34.97,34.66z M26.71,29.38l8.26,4.77l8.26-4.72l-8.26-4.77
			L26.71,29.38z"/>
	</g>
	<g>
		<path class="st0" d="M35.27,17.59v-7.45l6.45-3.72v7.4L35.27,17.59z M35.71,10.39v6.43l5.57-3.26V7.18L35.71,10.39z"/>
	</g>
	<g>
		<path class="st0" d="M34.97,9.64l-6.45-3.73l6.45-3.67l6.45,3.67L34.97,9.64z M29.41,5.92l5.57,3.21l5.57-3.21l-5.57-3.17
			L29.41,5.92z"/>
	</g>
	<g>
		<path class="st0" d="M34.68,17.59l-6.45-3.72V6.47l6.45,3.67V17.59z M28.67,13.61l5.57,3.22v-6.43l-5.57-3.17V13.61z"/>
	</g>
	<g>
		<path class="st0" d="M34.68,45.71l-9.14-5.28V30.09l0.33,0l8.81,5.12V45.71z M25.97,40.18l8.26,4.77v-9.49l-8.26-4.8V40.18z"/>
	</g>
	<g>
		<path class="st0" d="M34.97,59.73L28.53,56l6.45-3.72L41.42,56L34.97,59.73z M29.41,56l5.57,3.22L40.54,56l-5.57-3.22L29.41,56z"
			/>
	</g>
	<g>
		<path class="st0" d="M34.68,67.63l-6.45-3.73v-7.4l6.45,3.73V67.63z M28.67,63.65l5.57,3.22v-6.38l-5.57-3.22V63.65z"/>
	</g>
	<g>
		<path class="st0" d="M35.27,67.68v-7.4l6.45-3.73v7.4L35.27,67.68z M35.71,60.53v6.38l5.57-3.22v-6.38L35.71,60.53z"/>
	</g>
	<g>
		<path class="st0" d="M35.27,45.71V35.21l9.14-5.28v10.51L35.27,45.71z M35.71,35.46v9.49l8.26-4.77v-9.49L35.71,35.46z"/>
	</g>
	<g>
		<path class="st0" d="M61.08,34.71l-6.45-3.72l6.45-3.72l6.45,3.72L61.08,34.71z M55.51,30.99l5.57,3.22l5.57-3.22l-5.57-3.22
			L55.51,30.99z"/>
	</g>
	<g>
		<path class="st0" d="M60.83,42.61l-6.45-3.73v-7.4l6.45,3.72V42.61z M54.83,38.63l5.57,3.22v-6.38l-5.57-3.22V38.63z"/>
	</g>
	<g>
		<path class="st0" d="M61.38,42.61v-7.4l6.45-3.72v7.4L61.38,42.61z M61.82,35.46v6.38l5.57-3.22v-6.38L61.82,35.46z"/>
	</g>
</g>
</svg>
