<?xml version="1.0" encoding="utf-8"?>
<!-- Generator: Adobe Illustrator 24.0.1, SVG Export Plug-In . SVG Version: 6.00 Build 0)  -->
<svg version="1.1" id="Layer_1" xmlns="http://www.w3.org/2000/svg" xmlns:xlink="http://www.w3.org/1999/xlink" x="0px" y="0px"
	 viewBox="0 0 70 70" style="enable-background:new 0 0 70 70;" xml:space="preserve">
<style type="text/css">
	.st0{fill:#324A5A;}
</style>
<g>
	<g>
		<path class="st0" d="M35,69.2l-7.8-4.5v-9l7.1-4.1v-4.9l-6.3-3.6l-2.6,2.6l0.9,0.5v9l-7.8,4.5l-7.8-4.5v-9l7.8-4.5l5.7,3.2
			l2.6-2.6l-2.2-1.2v-5.3h-7.9v3.8L8.7,44l-7.8-4.5v-9L8.7,26l7.8,4.5v3.8h8V29l2.2-1.2L24,25.1l-5.7,3.3l-7.8-4.5v-9l7.8-4.5
			l7.8,4.5v9l-0.8,0.4l2.6,2.6l6.3-3.6v-4.9l-7.1-4.1v-9L35,0.8l7.8,4.6v9l-7.1,4.1v4.9l6.3,3.6l2.6-2.6l-0.8-0.4v-9l7.8-4.5
			l7.9,4.5v9l-7.8,4.5L46,25.1l-2.6,2.6l2.2,1.2v5.3h7.9v-3.8l7.8-4.5l7.8,4.5v9L61.3,44l-7.8-4.5v-3.8h-7.9v5.4l-2.2,1.2L46,45
			l5.6-3.3l7.8,4.5v9l-7.8,4.5l-7.8-4.5v-9l0.9-0.5L42,43.1l-6.3,3.6v4.9l7.1,4.1v9L35,69.2z M27.6,64.4l7.4,4.2l7.4-4.2v-8.5
			l-7.1-4.1v-5.4l6.8-3.9l3.3,3.3l-1.1,0.7V55l7.4,4.2L59,55v-8.5l-7.4-4.2l-5.7,3.3l-3.3-3.3l2.4-1.4v-5.6h8.8v3.9l7.4,4.2l7.4-4.2
			v-8.5l-7.4-4.2l-7.4,4.2v3.9H45v-5.5l-2.4-1.4l3.3-3.3l5.8,3.3l7.4-4.2v-8.5l-7.4-4.2l-7.4,4.2v8.5l1.1,0.6l-3.2,3.3l-6.8-3.9
			v-5.4l7.1-4.1V5.6L35,1.3l-7.4,4.2v8.5l7.1,4.1v5.4l-6.8,3.9l-3.3-3.3l1.1-0.6v-8.5l-7.3-4.2l-7.4,4.2v8.5l7.4,4.2l5.8-3.3
			l3.3,3.3l-2.4,1.4v5.5h-8.9v-3.9l-7.4-4.2l-7.3,4.2v8.5l7.4,4.2l7.4-4.2v-3.9h8.8v5.5l2.4,1.4l-3.3,3.3l-5.8-3.2L11,46.5V55
			l7.4,4.2l7.4-4.2v-8.5l-1.1-0.7l3.3-3.3l6.8,3.9v5.4l-7.1,4.1L27.6,64.4L27.6,64.4z"/>
	</g>
	<polygon class="st0" points="51.3,27 44.8,23.2 44.8,15.8 51.3,19.5 	"/>
	<polygon class="st0" points="45.3,23 50.9,26.2 50.9,19.8 45.3,16.6 	"/>
	<polygon class="st0" points="51.9,27 51.9,19.5 58.4,15.8 58.4,23.2 	"/>
	<polygon class="st0" points="52.4,19.8 52.4,26.2 58,23 58,16.6 	"/>
	<polygon class="st0" points="51.6,19 45.2,15.3 51.6,11.6 58.1,15.3 	"/>
	<polygon class="st0" points="46,15.3 51.6,18.5 57.2,15.3 51.6,12.1 	"/>
	<polygon class="st0" points="18.6,27 18.6,19.5 25.1,15.8 25.1,23.2 	"/>
	<polygon class="st0" points="19.1,19.8 19.1,26.2 24.7,23 24.7,16.6 	"/>
	<polygon class="st0" points="18.3,19 11.8,15.3 18.3,11.6 24.8,15.3 	"/>
	<polygon class="st0" points="12.7,15.3 18.3,18.5 23.9,15.3 18.3,12.1 	"/>
	<polygon class="st0" points="18,27 11.5,23.2 11.5,16 11.9,16 18,19.5 	"/>
	<polygon class="st0" points="12,23 17.6,26.2 17.6,19.8 12,16.5 	"/>
	<polygon class="st0" points="8.7,34.7 2.3,31 8.8,27.2 15.2,31 	"/>
	<polygon class="st0" points="3.1,31 8.7,34.2 14.3,31 8.7,27.7 	"/>
	<polygon class="st0" points="8.4,42.6 2,38.9 2,31.5 8.4,35.2 	"/>
	<polygon class="st0" points="2.4,38.7 8,41.9 8,35.5 2.4,32.2 	"/>
	<polygon class="st0" points="9,42.6 9,35.2 15.5,31.5 15.5,38.9 	"/>
	<polygon class="st0" points="9.5,35.5 9.5,41.9 15.1,38.6 15.1,32.2 	"/>
	<polygon class="st0" points="18.3,50.4 11.8,46.6 18.3,42.9 24.8,46.7 	"/>
	<polygon class="st0" points="12.7,46.6 18.3,49.9 23.9,46.7 18.3,43.5 	"/>
	<polygon class="st0" points="18,58.4 11.5,54.6 11.5,47.3 11.9,47.3 18,50.9 	"/>
	<polygon class="st0" points="12,54.4 17.6,57.6 17.6,51.2 12,47.9 	"/>
	<polygon class="st0" points="18.6,58.4 18.6,50.9 25.1,47.2 25.1,54.6 	"/>
	<polygon class="st0" points="19.1,51.2 19.1,57.6 24.7,54.4 24.7,48 	"/>
	<polygon class="st0" points="51.3,58.4 44.8,54.6 44.8,47.2 51.3,50.9 	"/>
	<polygon class="st0" points="45.3,54.4 50.9,57.6 50.9,51.2 45.3,48 	"/>
	<polygon class="st0" points="51.9,58.4 51.9,50.9 58.4,47.2 58.4,54.6 	"/>
	<polygon class="st0" points="52.4,51.2 52.4,57.6 58,54.4 58,48 	"/>
	<polygon class="st0" points="51.6,50.4 45.2,46.6 51.6,42.9 58.1,46.7 	"/>
	<polygon class="st0" points="46,46.6 51.6,49.9 57.2,46.7 51.6,43.4 	"/>
	<polygon class="st0" points="35,34.7 25.8,29.4 35,24.1 44.2,29.4 	"/>
	<polygon class="st0" points="26.7,29.4 35,34.1 43.3,29.4 35,24.6 	"/>
	<polygon class="st0" points="35.3,17.5 35.3,10 41.8,6.3 41.8,13.7 	"/>
	<polygon class="st0" points="35.7,10.3 35.7,16.7 41.3,13.5 41.3,7 	"/>
	<polygon class="st0" points="35,9.5 28.5,5.8 35,2.1 41.5,5.8 	"/>
	<polygon class="st0" points="29.4,5.8 35,9 40.6,5.8 35,2.6 	"/>
	<polygon class="st0" points="34.7,17.5 28.2,13.8 28.2,6.3 34.7,10 	"/>
	<polygon class="st0" points="28.6,13.5 34.2,16.7 34.2,10.3 28.6,7.1 	"/>
	<polygon class="st0" points="34.7,45.8 25.5,40.5 25.5,30.1 25.8,30.1 34.7,35.2 	"/>
	<polygon class="st0" points="25.9,40.2 34.2,45 34.2,35.5 25.9,30.6 	"/>
	<polygon class="st0" points="35,59.9 28.5,56.1 35,52.4 41.5,56.1 	"/>
	<polygon class="st0" points="29.4,56.1 35,59.3 40.6,56.1 35,52.9 	"/>
	<polygon class="st0" points="34.7,67.8 28.2,64 28.2,56.6 34.7,60.4 	"/>
	<polygon class="st0" points="28.6,63.8 34.2,67 34.2,60.6 28.6,57.4 	"/>
	<polygon class="st0" points="35.3,67.8 35.3,60.4 41.8,56.7 41.8,64.1 	"/>
	<polygon class="st0" points="35.7,60.7 35.7,67.1 41.3,63.8 41.3,57.4 	"/>
	<polygon class="st0" points="35.3,45.8 35.3,35.2 44.5,29.9 44.5,40.5 	"/>
	<polygon class="st0" points="35.7,35.5 35.7,45 44,40.2 44,30.7 	"/>
	<polygon class="st0" points="61.2,34.7 54.7,31 61.2,27.2 67.7,31 	"/>
	<polygon class="st0" points="55.6,31 61.2,34.2 66.8,31 61.2,27.7 	"/>
	<polygon class="st0" points="61,42.6 54.5,38.9 54.5,31.5 61,35.2 	"/>
	<polygon class="st0" points="54.9,38.6 60.5,41.9 60.5,35.5 54.9,32.2 	"/>
	<polygon class="st0" points="61.5,42.6 61.5,35.2 68,31.5 68,38.9 	"/>
	<polygon class="st0" points="62,35.5 62,41.9 67.6,38.6 67.6,32.2 	"/>
</g>
</svg>
