<?xml version="1.0" encoding="utf-8"?>
<!-- Generator: Adobe Illustrator 24.0.1, SVG Export Plug-In . SVG Version: 6.00 Build 0)  -->
<svg version="1.1" id="Layer_1" xmlns="http://www.w3.org/2000/svg" xmlns:xlink="http://www.w3.org/1999/xlink" x="0px" y="0px"
	 viewBox="0 0 70 70" style="enable-background:new 0 0 70 70;" xml:space="preserve">
<style type="text/css">
	.st0{fill:#324A5A;}
</style>
<g>
	<g>
		<path class="st0" d="M68.46,69H1.54V16.07h66.92V69z M2.31,68.23h65.38V16.84H2.31V68.23z M32.16,55.56h-3.64l9.38-26.99h3.59
			l-0.24,0.7L32.16,55.56z M29.6,54.79h2.01l8.79-25.45h-1.96L29.6,54.79z M41.89,48.75l-1.03-3.07l0.45-0.19l8.26-3.42l-8.72-3.61
			l1.03-3.07l0.52,0.22l11.81,5.04l0,3.12l-0.37-0.12L41.89,48.75z M41.81,46.11l0.54,1.6l11.1-4.74l0-1.83l-11.1-4.74l-0.54,1.6
			l9.77,4.05L41.81,46.11z M28.11,48.75l-0.52-0.22l-11.8-5.04l0-2.84l12.33-5.26l1.03,3.07l-8.71,3.61l8.72,3.61L28.11,48.75z
			 M16.55,42.98l11.1,4.74l0.54-1.6l-9.77-4.05l9.77-4.05l-0.54-1.6l-11.09,4.74L16.55,42.98z"/>
	</g>
	<g>
		<path class="st0" d="M68.46,14.54H1.54V1h66.92V14.54z M2.31,13.77h65.38v-12H2.31V13.77z M60.29,9.32H34.85
			c-0.84,0-1.52-0.69-1.52-1.53s0.68-1.53,1.52-1.53h25.44c0.84,0,1.52,0.69,1.52,1.53S61.13,9.32,60.29,9.32z M34.85,7.02
			c-0.42,0-0.76,0.34-0.76,0.76s0.34,0.76,0.76,0.76h25.44c0.42,0,0.76-0.34,0.76-0.76s-0.34-0.76-0.76-0.76H34.85z M25.15,9.32
			h-5.65c-0.84,0-1.52-0.69-1.52-1.53s0.68-1.53,1.52-1.53h5.65c0.84,0,1.52,0.69,1.52,1.53S25.99,9.32,25.15,9.32z M19.49,7.02
			c-0.42,0-0.76,0.34-0.76,0.76s0.34,0.76,0.76,0.76h5.65c0.42,0,0.76-0.34,0.76-0.76s-0.34-0.76-0.76-0.76H19.49z M13.88,9.32H8.22
			c-0.84,0-1.52-0.69-1.52-1.53c0-0.41,0.16-0.79,0.44-1.08c0.29-0.29,0.67-0.45,1.08-0.45h5.65c0.84,0,1.52,0.69,1.52,1.53
			S14.72,9.32,13.88,9.32z M8.22,7.02c-0.2,0-0.39,0.08-0.53,0.22C7.55,7.39,7.47,7.58,7.47,7.79c0,0.42,0.34,0.77,0.76,0.77h5.65
			c0.42,0,0.76-0.34,0.76-0.76s-0.34-0.76-0.76-0.76H8.22z"/>
	</g>
</g>
</svg>
