<?xml version="1.0" encoding="utf-8"?>
<!-- Generator: Adobe Illustrator 24.0.1, SVG Export Plug-In . SVG Version: 6.00 Build 0)  -->
<svg version="1.1" id="Layer_1" xmlns="http://www.w3.org/2000/svg" xmlns:xlink="http://www.w3.org/1999/xlink" x="0px" y="0px"
	 viewBox="0 0 533.76 542.5" style="enable-background:new 0 0 533.76 542.5;" xml:space="preserve">
<style type="text/css">
	.st0{fill:#324A5A;}
</style>
<path class="st0" d="M0,542.5h533.75V121.61H0V542.5z M215.75,359.18l-6.32,18.85l-1.14-0.48l-93.37-39.86l0-18.83l94.5-40.33
	l6.32,18.85l-1,0.41l-73.57,30.49L215.75,359.18z M314.3,224.02l-72.56,210.04h-22.82l73.53-211.57h22.39L314.3,224.02z
	 M418.83,337.68l-94.5,40.35l-6.32-18.85l1-0.41l73.57-30.49L318,297.37l6.32-18.85l1.14,0.48l93.37,39.85V337.68L418.83,337.68z"/>
<path class="st0" d="M533.76,0H0.01v103.06h533.75V0z M265.68,42.39h205.26c5.08,0,9.2,4.15,9.2,9.27c0,5.13-4.12,9.27-9.2,9.27
	H265.68c-5.08,0-9.2-4.15-9.2-9.27C256.48,46.54,260.6,42.39,265.68,42.39 M141.75,42.39h45.61c5.08,0,9.2,4.15,9.2,9.27
	c0,5.13-4.12,9.27-9.2,9.27h-45.61c-5.08,0-9.2-4.15-9.2-9.27C132.55,46.54,136.66,42.39,141.75,42.39 M50.82,42.39h45.61
	c5.08,0,9.2,4.15,9.2,9.27c0,5.13-4.12,9.27-9.2,9.27H50.82c-5.08,0-9.2-4.15-9.2-9.27C41.61,46.54,45.73,42.39,50.82,42.39"/>
</svg>
