<?xml version="1.0" encoding="utf-8"?>
<!-- Generator: Adobe Illustrator 24.0.1, SVG Export Plug-In . SVG Version: 6.00 Build 0)  -->
<svg version="1.1" id="Layer_1" xmlns="http://www.w3.org/2000/svg" xmlns:xlink="http://www.w3.org/1999/xlink" x="0px" y="0px"
	 viewBox="0 0 700 700" style="enable-background:new 0 0 700 700;" xml:space="preserve">
<style type="text/css">
	.st0{fill:#005665;}
</style>
<path class="st0" d="M264.1,420h216.1L500,271.3H252.2l-8.8-43.8h-42.2V245h27.8L264.1,420z M480,288.8l-15.2,113.8H278.4
	l-22.8-113.8H480z"/>
<path class="st0" d="M280,446.3c0,7,2.8,13.6,7.7,18.6s11.6,7.7,18.6,7.7s13.6-2.8,18.6-7.7s7.7-11.6,7.7-18.6s-2.8-13.6-7.7-18.6
	s-11.6-7.7-18.6-7.7s-13.6,2.8-18.6,7.7S280,439.3,280,446.3z M306.3,437.5c3.5,0,6.7,2.1,8.1,5.4c1.4,3.3,0.6,7-1.9,9.5
	s-6.3,3.3-9.5,1.9c-3.3-1.4-5.4-4.5-5.4-8.1C297.5,441.4,301.4,437.5,306.3,437.5z"/>
<path class="st0" d="M411.3,446.3c0,7,2.8,13.6,7.7,18.6s11.6,7.7,18.6,7.7s13.6-2.8,18.6-7.7s7.7-11.6,7.7-18.6s-2.8-13.6-7.7-18.6
	s-11.6-7.7-18.6-7.7s-13.6,2.8-18.6,7.7S411.3,439.3,411.3,446.3z M437.5,437.5c3.5,0,6.7,2.1,8.1,5.4c1.4,3.3,0.6,7-1.9,9.5
	s-6.3,3.3-9.5,1.9c-3.3-1.4-5.4-4.5-5.4-8.1C428.8,441.4,432.7,437.5,437.5,437.5z"/>
</svg>
