<?xml version="1.0" encoding="utf-8"?>
<!-- Generator: Adobe Illustrator 24.0.1, SVG Export Plug-In . SVG Version: 6.00 Build 0)  -->
<svg version="1.1" id="Layer_1" xmlns="http://www.w3.org/2000/svg" xmlns:xlink="http://www.w3.org/1999/xlink" x="0px" y="0px"
	 viewBox="0 0 700 700" style="enable-background:new 0 0 700 700;" xml:space="preserve">
<style type="text/css">
	.st0{fill:#005665;}
</style>
<path class="st0" d="M578,222.3c-5.3-37.2-24.8-70.9-54.4-94.1c-20.3-15.8-45.2-24.4-70.8-24.6c-25.7-0.2-50.7,8.1-71.2,23.6
	c-13.2,9.8-24,22.6-31.6,37.2c-7.7-14.7-18.6-27.4-31.9-37.2c-20.5-15.4-45.4-23.6-71-23.4c-25.6,0.2-50.5,8.8-70.7,24.5
	c-29.5,23.2-48.9,56.9-54.1,94.1c-1.1,7.4-1.6,14.9-1.6,22.4c-0.2,38.7,14.7,76,41.5,103.9l5.6,5.9c9.6,9.7,19.5,19.7,29,29.8
	l116.5,123.9c8.6,11.4,22,18.1,36.2,18.2h1.1h0c14.3-0.1,27.6-6.8,36.2-18.2L503,384.5c9.5-10.1,19.4-20,29-29.7l5.9-6.2
	c26.9-27.9,41.9-65.2,41.8-103.9C579.6,237.2,579.1,229.7,578,222.3L578,222.3z M486.8,369.3L370.2,493.4l-0.8,0.9l0,0
	c-4.4,6.1-11.4,9.7-18.9,9.9h-1.1c-7.5-0.1-14.5-3.8-18.9-10l-0.8-0.9l-116.5-124c-5.6-6.1-11.6-12.2-17.4-18.1h97.5l0.8-0.4h0.3
	l0.5-0.3h0.3l0.5-0.4h0.3l0.5-0.4l0.6-0.6c0.4-0.5,0.8-1.1,1.1-1.7v-1.8l1.3-2.5l17.9-67.2l24.7,141.7v2.4l0.3,0.6v0.3l0.4,0.6
	l0.4,0.6v0.3l0.4,0.5l0.3,0.3l0.4,0.4l0.3,0.3l0.6,0.4l0.6,0.4l0.5,0.3h0.4l0.6,0.3h1.1l1.5,0.3h5.5l0.7-0.3h0.4l0.5-0.3h0.4
	l0.4-0.3h0.3l0.5-0.4h0c0.5-0.5,0.9-1,1.3-1.5l0.4-0.7l0.3-0.6V420l33.9-99.4l7.9,23.3v0c0.2,0.5,0.4,1,0.6,1.5
	c0.3,0.4,0.5,0.9,0.8,1.3v0.3l1,1.1l1,0.8l1.3,0.8l1.4,0.6l1.5,0.3h93.9C498.3,357.1,492.5,363.2,486.8,369.3L486.8,369.3z
	 M525.2,330.1L525.2,330.1c-1.4-0.6-2.9-0.9-4.4-0.9h-99.6L404.9,281c-1.6-4.6-5.9-7.6-10.8-7.5c-4.8,0.1-9.1,3.3-10.5,7.9l-27.2,87
	L330.9,222v-2.7l-0.3-0.6v-0.4l-0.3-0.5v-0.4l-0.3-0.4l-0.3-0.4l-2-0.6l-0.4-0.4h-0.3l-0.6-0.4h-0.3l-0.6-0.3H325l-0.6-0.3h-9.2
	l-0.6,0.3h-0.4l-0.5,0.3h-0.4l-0.4,0.3l-0.8,0.7l-0.4,0.4l-0.3,0.3l-0.4,0.5v0.3l-0.3,0.6v2.5L280.5,329H179.7
	c-1.6,0-3.2,0.4-4.7,1.1c-20.9-23.5-32.4-53.9-32.1-85.3c-0.1-6.4,0.4-12.9,1.2-19.3c4.4-31.4,20.7-59.9,45.6-79.5
	c16.4-12.8,36.6-19.8,57.4-20c20.8-0.2,41.1,6.6,57.7,19.1c12.6,9.2,22.4,21.6,28.3,36c0.6,1.3,1,2.5,1.3,3.5c1.7,4.1,5,7.4,9.1,9.1
	c4.1,1.7,8.8,1.7,12.9,0c4.1-1.7,7.4-5,9.1-9.1c0.3-1,0.7-2.1,1.3-3.4c6-14.4,15.8-26.8,28.3-36c16.6-12.5,36.9-19.3,57.8-19.1
	c20.8,0.2,41,7.2,57.4,20c24.9,19.6,41.2,48.1,45.6,79.4c0.9,6.4,1.3,12.8,1.2,19.3c0.2,31.4-11.2,61.7-32,85.2L525.2,330.1z"/>
</svg>
