<?xml version="1.0" encoding="utf-8"?>
<!-- Generator: Adobe Illustrator 24.0.1, SVG Export Plug-In . SVG Version: 6.00 Build 0)  -->
<svg version="1.1" id="Layer_1" xmlns="http://www.w3.org/2000/svg" xmlns:xlink="http://www.w3.org/1999/xlink" x="0px" y="0px"
	 viewBox="0 0 700 700" style="enable-background:new 0 0 700 700;" xml:space="preserve">
<style type="text/css">
	.st0{fill:#005665;stroke:#005665;stroke-width:5;stroke-miterlimit:10;}
	.st1{fill:#005665;}
</style>
<path class="st0" d="M350,456.4c-91.3,0-165.2-73.9-165.2-165.2c0-91.3,73.9-165.2,165.2-165.2c38.1,0,75.6,13.4,105.3,37.5
	c18.5,15.1,33.6,34.7,43.7,56c2.2,3.9,0,9-3.9,11.2c-3.9,2.2-9,0-11.2-3.9c-9.5-19-23-36.4-39.2-50.4
	c-26.3-21.8-59.9-34.2-94.6-34.2c-81.8,0-148.4,66.6-148.4,148.4c0,81.8,66.6,149,148.4,149c57.7,0,110.3-33.6,135-86.2
	c1.7-4.5,6.7-6.2,11.2-3.9c4.5,1.7,6.2,6.7,3.9,11.2C473.2,418.9,414.4,456.4,350,456.4L350,456.4z"/>
<path class="st0" d="M225.1,398.2c-49.3,0-84-13.4-93.5-38.6c-10.1-27.4,10.1-62.7,57.1-98c3.9-2.8,9-2.2,11.8,1.7
	c2.8,3.9,2.2,9-1.7,11.8c-39.2,29.7-58.2,59.4-51.5,79c11.2,30.2,88.5,40.9,199.4,6.7c4.5-1.1,9,1.1,10.6,5.6
	c1.1,4.5-1.1,9-5.6,10.6C304.6,391.4,261,398.2,225.1,398.2L225.1,398.2z"/>
<path class="st0" d="M560.6,211.7c-3.4,0-6.7-2.2-7.8-5.6c-7.3-19.6-40.9-29.7-90.2-27.4h-12.9c-4.5,0-8.4-3.9-8.4-8.4
	c0-4.5,3.9-8.4,8.4-8.4H462c58.2-2.8,96.3,10.6,106.4,38.6c1.7,4.5-0.6,9-5,10.6C562.2,211.7,561.7,211.7,560.6,211.7L560.6,211.7z"
	/>
<path class="st0" d="M350,375.8c-1.1,0-2.2,0-3.4-0.6l-40.9-19c-4.5-1.7-6.2-6.7-3.9-11.2c2.2-4.5,6.7-6.2,11.2-3.9l40.9,19
	c4.5,1.7,6.2,6.7,3.9,11.2C356.2,374.1,353.4,375.8,350,375.8L350,375.8z"/>
<path class="st1" d="M331,416.6c-1.1,0-2.2,0-3.4-0.6c-4.5-1.7-6.2-6.7-3.9-11.2l19-40.9c2.2-4.5,6.7-6.2,11.2-3.9
	c4.5,1.7,6.2,6.7,3.9,11.2l-19,40.3C337.1,415,334.3,416.6,331,416.6L331,416.6z"/>
<path class="st0" d="M398.2,358.4c-1.1,0-2.2,0-3.4-0.6L327.6,327c-3.4-1.7-5.6-5.6-4.5-9.5c1.1-3.9,3.9-6.7,7.8-6.7l66.6-2.2
	l24.1-14.6l-37.5-40.3c-1.7-1.7-2.2-3.9-2.2-6.2s1.1-4.5,2.8-6.2c1.1-0.6,9.5-7.8,26.3-7.8c20.7,0,44.8,10.6,71.7,30.8l57.1-26.3
	c3.4-1.7,8.4-2.2,14-2.2c10.6,0,30.2,2.8,35.3,14.6c2.2,5,4.5,14-5.6,22.4c-5,3.9-12.9,7.8-22.4,12.3l-159.6,72.8
	C400.4,358.4,399.3,358.4,398.2,358.4L398.2,358.4z M366.8,326.5l31.4,14l155.1-70.6c8.4-3.9,19-8.4,20.2-11.2c0,0,0-0.6-0.6-1.1
	c-1.1-1.7-9.5-4.5-20.2-4.5c-3.9,0-6.2,0.6-7.3,1.1l-61.6,28c-2.8,1.1-6.2,1.1-9-1.1c-31.4-25.2-52.6-30.2-65-30.2
	c-2.2,0-4.5,0-6.7,0.6l36.4,38.6c1.7,1.7,2.8,4.5,2.2,6.7c-0.6,2.2-1.7,4.5-3.9,6.2l-34.7,21.3c-1.1,0.6-2.8,1.1-3.9,1.1
	L366.8,326.5z"/>
</svg>
