<?xml version="1.0" encoding="utf-8"?>
<!-- Generator: Adobe Illustrator 23.0.1, SVG Export Plug-In . SVG Version: 6.00 Build 0)  -->
<svg version="1.1" id="Layer_1" xmlns="http://www.w3.org/2000/svg" xmlns:xlink="http://www.w3.org/1999/xlink" x="0px" y="0px"
	 viewBox="0 0 433.58 491.73" style="enable-background:new 0 0 433.58 491.73;" xml:space="preserve">
<style type="text/css">
	.st0{fill:#E44D26;}
	.st1{fill:#F16529;}
	.st2{fill:#EBEBEB;}
	.st3{fill:#FFFFFF;}
</style>
<polygon class="st0" points="0,0 39.46,442.57 216.52,491.73 394.08,442.5 433.58,0 "/>
<polygon class="st1" points="216.79,454.1 360.26,414.33 394.02,36.19 216.79,36.19 "/>
<polygon class="st2" points="216.79,200.33 144.96,200.33 140,144.75 216.79,144.75 216.79,90.47 216.6,90.47 80.68,90.47 
	81.98,105.03 95.32,254.61 216.79,254.61 "/>
<polygon class="st2" points="216.79,341.3 216.55,341.36 156.1,325.04 152.23,281.75 122.86,281.75 97.75,281.75 105.35,366.98 
	216.54,397.84 216.79,397.77 "/>
<polygon class="st3" points="216.6,200.33 216.6,254.61 283.44,254.61 277.14,325.01 216.6,341.35 216.6,397.82 327.88,366.98 
	328.69,357.81 341.45,214.91 342.77,200.33 328.15,200.33 "/>
<polygon class="st3" points="216.6,90.47 216.6,124.18 216.6,144.61 216.6,144.75 347.54,144.75 347.71,144.75 348.8,132.55 
	351.28,105.03 352.57,90.47 "/>
</svg>
