<?xml version="1.0" encoding="utf-8"?>
<!-- Generator: Adobe Illustrator 23.0.1, SVG Export Plug-In . SVG Version: 6.00 Build 0)  -->
<svg version="1.1" id="Layer_1" xmlns="http://www.w3.org/2000/svg" xmlns:xlink="http://www.w3.org/1999/xlink" x="0px" y="0px"
	 viewBox="0 0 64 56.94" style="enable-background:new 0 0 64 56.94;" xml:space="preserve">
<style type="text/css">
	.st0{clip-path:url(#SVGID_2_);fill-rule:evenodd;clip-rule:evenodd;fill:#00D8FF;}
	.st1{clip-path:url(#SVGID_2_);fill:none;stroke:#00D8FF;stroke-width:2.734;stroke-miterlimit:10;}
</style>
<g>
	<defs>
		<rect id="SVGID_1_" y="0" width="64" height="56.94"/>
	</defs>
	<clipPath id="SVGID_2_">
		<use xlink:href="#SVGID_1_"  style="overflow:visible;"/>
	</clipPath>
	<path class="st0" d="M32,22.7c3.16,0,5.72,2.56,5.72,5.72c0,3.16-2.56,5.72-5.72,5.72s-5.72-2.56-5.72-5.72
		C26.29,25.26,28.84,22.7,32,22.7"/>
	<path class="st1" d="M32,16.79c7.67,0,14.8,1.1,20.18,2.95c6.48,2.23,10.46,5.61,10.46,8.67c0,3.19-4.22,6.78-11.17,9.08
		C46.2,39.24,39.29,40.15,32,40.15c-7.47,0-14.54-0.85-19.86-2.67c-6.73-2.3-10.78-5.94-10.78-9.06c0-3.03,3.8-6.39,10.19-8.61
		C16.95,17.92,24.25,16.79,32,16.79L32,16.79z"/>
	<path class="st1" d="M21.89,22.64c3.83-6.65,8.35-12.27,12.64-16c5.17-4.5,10.08-6.26,12.73-4.73c2.76,1.59,3.76,7.04,2.29,14.22
		c-1.12,5.43-3.79,11.87-7.42,18.18c-3.73,6.47-8,12.17-12.23,15.87c-5.35,4.68-10.53,6.37-13.24,4.81
		c-2.63-1.51-3.63-6.48-2.37-13.13C15.34,36.24,18.01,29.35,21.89,22.64L21.89,22.64z"/>
	<path class="st1" d="M21.9,34.32c-3.84-6.64-6.46-13.36-7.55-18.94C13.03,8.66,13.96,3.52,16.6,1.99c2.76-1.6,7.98,0.26,13.46,5.12
		c4.14,3.68,8.4,9.21,12.04,15.51c3.74,6.46,6.55,13.01,7.64,18.52c1.38,6.97,0.26,12.3-2.44,13.87c-2.63,1.52-7.43-0.09-12.56-4.5
		C30.41,46.79,25.78,41.03,21.9,34.32z"/>
</g>
</svg>
