<?xml version="1.0" encoding="utf-8"?>
<!-- Generator: Adobe Illustrator 23.0.1, SVG Export Plug-In . SVG Version: 6.00 Build 0)  -->
<svg version="1.1" id="Layer_1" xmlns="http://www.w3.org/2000/svg" xmlns:xlink="http://www.w3.org/1999/xlink" x="0px" y="0px"
	 viewBox="0 0 255.45 290.5" style="enable-background:new 0 0 255.45 290.5;" xml:space="preserve">
<style type="text/css">
	.st0{clip-path:url(#SVGID_2_);fill:#95BF46;}
	.st1{clip-path:url(#SVGID_2_);fill:#5E8E3E;}
	.st2{clip-path:url(#SVGID_2_);fill:#FFFFFF;}
</style>
<g>
	<defs>
		<rect id="SVGID_1_" width="255.45" height="290.5"/>
	</defs>
	<clipPath id="SVGID_2_">
		<use xlink:href="#SVGID_1_"  style="overflow:visible;"/>
	</clipPath>
	<path class="st0" d="M223.74,56.56c-0.2-1.46-1.48-2.27-2.54-2.36c-1.06-0.09-23.38-1.74-23.38-1.74s-15.51-15.39-17.21-17.1
		c-1.7-1.7-5.03-1.19-6.32-0.8c-0.19,0.06-3.39,1.04-8.68,2.68c-5.18-14.9-14.32-28.6-30.4-28.6c-0.44,0-0.9,0.02-1.36,0.05
		C129.27,2.63,123.61,0,118.71,0C81.25,0,63.35,46.83,57.74,70.63c-14.56,4.51-24.9,7.72-26.22,8.13c-8.13,2.55-8.38,2.8-9.45,10.46
		C21.26,95.03,0,259.46,0,259.46l165.68,31.04l89.77-19.42C255.45,271.08,223.93,58.02,223.74,56.56 M156.45,40.07
		c-4.16,1.29-8.89,2.75-14.02,4.34c0-0.99,0.01-1.96,0.01-3.02c0-9.26-1.29-16.72-3.35-22.64C147.38,19.79,152.9,29.22,156.45,40.07
		 M128.81,20.59c2.3,5.77,3.8,14.06,3.8,25.24c0,0.57-0.01,1.1-0.01,1.62c-9.12,2.82-19.02,5.89-28.95,8.97
		C109.23,34.9,119.68,24.51,128.81,20.59 M117.68,10.05c1.62,0,3.25,0.55,4.8,1.62c-12.01,5.65-24.88,19.88-30.31,48.3
		c-7.94,2.46-15.71,4.86-22.89,7.09C75.66,45.38,90.77,10.05,117.68,10.05"/>
	<path class="st1" d="M221.2,54.2c-1.06-0.09-23.38-1.74-23.38-1.74s-15.51-15.4-17.21-17.1c-0.64-0.63-1.5-0.96-2.4-1.1
		L165.69,290.5l89.76-19.42c0,0-31.51-213.05-31.71-214.52C223.54,55.1,222.26,54.29,221.2,54.2"/>
	<path class="st2" d="M135.2,103.81l-11.07,32.93c0,0-9.7-5.18-21.59-5.18c-17.43,0-18.31,10.94-18.31,13.69
		c0,15.04,39.2,20.8,39.2,56.02c0,27.71-17.58,45.56-41.28,45.56c-28.44,0-42.98-17.7-42.98-17.7l7.62-25.16
		c0,0,14.95,12.84,27.56,12.84c8.24,0,11.6-6.49,11.6-11.23c0-19.62-32.16-20.49-32.16-52.72c0-27.13,19.47-53.38,58.78-53.38
		C127.72,99.47,135.2,103.81,135.2,103.81"/>
</g>
</svg>
