<?xml version="1.0" encoding="utf-8"?>
<!-- Generator: Adobe Illustrator 23.0.1, SVG Export Plug-In . SVG Version: 6.00 Build 0)  -->
<svg version="1.1" id="Layer_1" xmlns="http://www.w3.org/2000/svg" xmlns:xlink="http://www.w3.org/1999/xlink" x="0px" y="0px"
	 viewBox="0 0 730.57 580.02" style="enable-background:new 0 0 730.57 580.02;" xml:space="preserve">
<style type="text/css">
	.st0{fill:#00749A;}
	.st1{fill:none;}
</style>
<g>
	<path class="st0" d="M116.49,290c0,98.48,57.23,183.58,140.21,223.91L138.03,188.75C124.23,219.69,116.49,253.93,116.49,290"/>
	<path class="st0" d="M533.23,277.44c0-30.75-11.04-52.04-20.52-68.61c-12.6-20.49-24.42-37.85-24.42-58.34
		c0-22.87,17.34-44.16,41.77-44.16c1.1,0,2.15,0.14,3.23,0.2c-44.27-40.55-103.24-65.31-168.01-65.31
		c-86.92,0-163.38,44.59-207.87,112.14c5.84,0.17,11.35,0.29,16.01,0.29c26.02,0,66.31-3.16,66.31-3.16
		c13.41-0.79,14.99,18.91,1.6,20.49c0,0-13.48,1.59-28.48,2.37l90.6,269.47l54.45-163.29l-38.77-106.19
		c-13.4-0.79-26.09-2.37-26.09-2.37c-13.41-0.79-11.84-21.28,1.57-20.49c0,0,41.08,3.16,65.53,3.16c26.02,0,66.3-3.16,66.3-3.16
		c13.42-0.79,15,18.91,1.6,20.49c0,0-13.5,1.59-28.47,2.37l89.91,267.44l24.81-82.92C525.04,323.46,533.23,298.74,533.23,277.44"/>
	<path class="st0" d="M369.64,311.76L295,528.66c22.29,6.56,45.85,10.14,70.28,10.14c28.97,0,56.76-5.02,82.62-14.1
		c-0.68-1.06-1.28-2.2-1.77-3.43L369.64,311.76z"/>
	<path class="st0" d="M583.57,170.64c1.07,7.92,1.67,16.44,1.67,25.58c0,25.25-4.71,53.63-18.92,89.11l-75.99,219.71
		C564.3,461.91,614.05,381.78,614.05,290C614.05,246.75,603,206.08,583.57,170.64"/>
	<path class="st0" d="M365.27,0C205.37,0,75.27,130.09,75.27,290c0,159.92,130.09,290.02,290.01,290.02
		c159.9,0,290.02-130.09,290.02-290.02C655.29,130.09,525.18,0,365.27,0 M365.27,566.71C212.7,566.71,88.57,442.58,88.57,290
		C88.57,137.43,212.7,13.3,365.27,13.3c152.57,0,276.69,124.12,276.69,276.69C641.97,442.58,517.84,566.71,365.27,566.71"/>
	<rect x="75.27" class="st1" width="580" height="580.01"/>
</g>
</svg>
